<svg xmlns="http://www.w3.org/2000/svg" xmlns:xlink="http://www.w3.org/1999/xlink" version="1.1" viewBox="0 0 2370 3191" style="background: #111111"><defs><style>@import url(https://fonts.googleapis.com/css?family=Open+Sans:400,700);</style></defs><defs joint-selector="defs"></defs><g joint-selector="layers"  transform="matrix(1,0,0,1,0,0)"><g ></g><g ><!--z-index:1--><!--z-index:2--><!--z-index:3--><!--z-index:4--><!--z-index:5--><!--z-index:6--><!--z-index:7--><!--z-index:8--><!--z-index:9--><!--z-index:10--><!--z-index:11--><!--z-index:12--><!--z-index:13--><!--z-index:14--><!--z-index:15--><!--z-index:16--><!--z-index:17--><!--z-index:18--><!--z-index:19--><!--z-index:20--><!--z-index:21--><!--z-index:22--><g   id="j_20"  transform="translate(20,3154.6)"><g id="v-216"><text  id="v-217" font-size="22px" xml:space="preserve" y="0.8em" font-weight="normal" text-anchor="start" fill="#777777" pointer-events="none" display="block" font-family="Open Sans"><tspan dy="0" >quarta-feira, 12 de fevereiro de 2025 às 02:42 Horário Padrão de Brasília</tspan></text></g></g><!--z-index:23--><g   id="j_19"  transform="translate(20,3111.4)"><g id="v-214"><text  id="v-215" font-size="36px" xml:space="preserve" y="0.8em" font-weight="normal" text-anchor="start" fill="#bbbbbb" pointer-events="none" display="block" font-family="Open Sans"><tspan dy="0" >[Component] Desafio Carrefour - Back-End</tspan></text></g></g><!--z-index:24--><g   id="j_21"  transform="translate(220,2656)" style=""><g  id="v-218" style="opacity: 1;"><path  d="M 0,30 a 225,30 0,0,0 450 0 a 225,30 0,0,0 -450 0 l 0,240 a 225,30 0,0,0 450 0 l 0,-240" id="v-219" stroke="#3c7fc0" stroke-width="2" pointer-events="visiblePainted" fill="#438dd5" style="fill: rgb(67, 141, 213); stroke: rgb(60, 127, 192);"></path><rect  id="v-220" stroke-width="0" pointer-events="visiblePainted" fill="none" stroke="none" width="450" height="270" x="0" y="30"></rect><text  id="v-221" font-size="34" xml:space="preserve" y="0.8em" font-weight="bold" text-anchor="middle" pointer-events="visible" font-family="Open Sans" fill="#ffffff" transform="matrix(1,0,0,1,225,125)" style="fill: rgb(255, 255, 255);"><tspan dy="0" >Documentos</tspan></text><text  id="v-222" font-size="17" xml:space="preserve" y="0.8em" text-anchor="middle" font-family="Open Sans" fill="#ffffff" transform="matrix(1,0,0,1,225,165.8)" style="fill: rgb(255, 255, 255);"><tspan dy="0" >[Container: DynamoDB]</tspan></text><text  id="v-223" font-size="24" xml:space="preserve" y="0.8em" text-anchor="middle" font-family="Open Sans" fill="#ffffff" transform="matrix(1,0,0,1,225,196.2)" style="fill: rgb(255, 255, 255);"><tspan dy="0" >Registra Documentos</tspan></text><g  id="v-224" font-weight="normal" text-anchor="middle" color="#ffffff" transform="matrix(1,0,0,1,222.5,268)" style="fill: rgb(255, 255, 255);" display="none"><g ></g><g ></g><g ></g><g ></g></g><image  id="v-225"></image></g></g><!--z-index:25--><g   id="j_23"  transform="translate(200,327)" style=""><g id="v-239"><rect  id="v-240" width="1240" height="1611" rx="0" ry="0" fill="#111111" stroke="#3c7fc0" stroke-width="1" stroke-dasharray="20,20" pointer-events="none"></rect><text  id="v-241" font-size="24px" xml:space="preserve" y="1572" font-weight="normal" fill="#3c7fc0" text-anchor="start" pointer-events="visible" font-family="Open Sans" transform="matrix(1,0,0,1,15,0)"><tspan dy="0" >Back-End</tspan></text><text  id="v-242" font-size="17px" xml:space="preserve" y="1596" font-weight="normal" fill="#3c7fc0" text-anchor="start" pointer-events="visible" font-family="Open Sans" transform="matrix(1,0,0,1,15,0)"><tspan dy="0" >[Container]</tspan></text><image  id="v-243" pointer-events="visible"></image></g></g><!--z-index:26--><g   id="j_22"  transform="translate(220,647)" style=""><g  id="v-232" style="opacity: 1;"><rect  id="v-233" rx="20" ry="20" stroke="#78a8d8" stroke-width="2" pointer-events="visiblePainted" fill="#85bbf0" width="450" height="300" style="fill: rgb(133, 187, 240); stroke: rgb(120, 168, 216);"></rect><text  id="v-234" font-size="34" xml:space="preserve" y="0.8em" font-weight="bold" text-anchor="middle" pointer-events="visible" font-family="Open Sans" fill="#000000" transform="matrix(1,0,0,1,225,67.7)" style="fill: rgb(0, 0, 0);"><tspan dy="0" >MicroServiço</tspan><tspan dy="1.2em" x="0" >FluxoCaixa.Autenticacao</tspan></text><text  id="v-235" font-size="17" xml:space="preserve" y="0.8em" text-anchor="middle" font-family="Open Sans" fill="#000000" transform="matrix(1,0,0,1,225,149.3)" style="fill: rgb(0, 0, 0);"><tspan dy="0" >[Component: C#]</tspan></text><text  id="v-236" font-size="24" xml:space="preserve" y="0.8em" text-anchor="middle" font-family="Open Sans" fill="#000000" transform="matrix(1,0,0,1,225,179.7)" style="fill: rgb(0, 0, 0);"><tspan dy="0" >Gerencia Usuários, Senhas,</tspan><tspan dy="1.2em" x="0" >API-KEYS e processa a Autenticação</tspan></text><g  id="v-237" color="#000000" transform="matrix(1,0,0,1,222.5,268)" style="fill: rgb(0, 0, 0);" display="none"><g ></g><g ></g><g ></g><g ></g></g><image  id="v-238"></image></g></g><!--z-index:27--><g   id="j_24"  transform="translate(970,347)" style=""><g  id="v-250" style="opacity: 1;"><rect  id="v-251" rx="20" ry="20" stroke="#78a8d8" stroke-width="2" pointer-events="visiblePainted" fill="#85bbf0" width="450" height="300" style="fill: rgb(133, 187, 240); stroke: rgb(120, 168, 216);"></rect><text  id="v-252" font-size="34" xml:space="preserve" y="0.8em" font-weight="bold" text-anchor="middle" pointer-events="visible" font-family="Open Sans" fill="#000000" transform="matrix(1,0,0,1,225,82.1)" style="fill: rgb(0, 0, 0);"><tspan dy="0" >MicroServico</tspan><tspan dy="1.2em" x="0" >FluxoCaixa.Lancamentos</tspan></text><text  id="v-253" font-size="17" xml:space="preserve" y="0.8em" text-anchor="middle" font-family="Open Sans" fill="#000000" transform="matrix(1,0,0,1,225,163.7)" style="fill: rgb(0, 0, 0);"><tspan dy="0" >[Component: C#]</tspan></text><text  id="v-254" font-size="24" xml:space="preserve" y="0.8em" text-anchor="middle" font-family="Open Sans" fill="#000000" transform="matrix(1,0,0,1,225,194.1)" style="fill: rgb(0, 0, 0);"><tspan dy="0" >Registra e exibe lançamentos</tspan></text><g  id="v-255" color="#000000" transform="matrix(1,0,0,1,222.5,268)" style="fill: rgb(0, 0, 0);" display="none"><g ></g><g ></g><g ></g><g ></g></g><image  id="v-256"></image></g></g><!--z-index:28--><g   id="j_25"  transform="translate(970,947)" style=""><g  id="v-263" style="opacity: 1;"><rect  id="v-264" rx="20" ry="20" stroke="#78a8d8" stroke-width="2" pointer-events="visiblePainted" fill="#85bbf0" width="450" height="300" style="fill: rgb(133, 187, 240); stroke: rgb(120, 168, 216);"></rect><text  id="v-265" font-size="34" xml:space="preserve" y="0.8em" font-weight="bold" text-anchor="middle" pointer-events="visible" font-family="Open Sans" fill="#000000" transform="matrix(1,0,0,1,225,67.7)" style="fill: rgb(0, 0, 0);"><tspan dy="0" >MicroServico FluxoCaixa.</tspan><tspan dy="1.2em" x="0" >ConsolidadoDiario</tspan></text><text  id="v-266" font-size="17" xml:space="preserve" y="0.8em" text-anchor="middle" font-family="Open Sans" fill="#000000" transform="matrix(1,0,0,1,225,149.3)" style="fill: rgb(0, 0, 0);"><tspan dy="0" >[Component: C#]</tspan></text><text  id="v-267" font-size="24" xml:space="preserve" y="0.8em" text-anchor="middle" font-family="Open Sans" fill="#000000" transform="matrix(1,0,0,1,225,179.7)" style="fill: rgb(0, 0, 0);"><tspan dy="0" >Processa e exibe os lançamentos</tspan><tspan dy="1.2em" x="0" >consolidados</tspan></text><g  id="v-268" color="#000000" transform="matrix(1,0,0,1,222.5,268)" style="fill: rgb(0, 0, 0);" display="none"><g ></g><g ></g><g ></g><g ></g></g><image  id="v-269"></image></g></g><!--z-index:29--><g   id="j_26"  transform="translate(970,1547)" style=""><g  id="v-276" style="opacity: 1;"><rect  id="v-277" rx="20" ry="20" stroke="#78a8d8" stroke-width="2" pointer-events="visiblePainted" fill="#85bbf0" width="450" height="300" style="fill: rgb(133, 187, 240); stroke: rgb(120, 168, 216);"></rect><text  id="v-278" font-size="34" xml:space="preserve" y="0.8em" font-weight="bold" text-anchor="middle" pointer-events="visible" font-family="Open Sans" fill="#000000" transform="matrix(1,0,0,1,225,67.7)" style="fill: rgb(0, 0, 0);"><tspan dy="0" >MicroServico</tspan><tspan dy="1.2em" x="0" >FluxoCaixa.Integracoes</tspan></text><text  id="v-279" font-size="17" xml:space="preserve" y="0.8em" text-anchor="middle" font-family="Open Sans" fill="#000000" transform="matrix(1,0,0,1,225,149.3)" style="fill: rgb(0, 0, 0);"><tspan dy="0" >[Component: C#]</tspan></text><text  id="v-280" font-size="24" xml:space="preserve" y="0.8em" text-anchor="middle" font-family="Open Sans" fill="#000000" transform="matrix(1,0,0,1,225,179.7)" style="fill: rgb(0, 0, 0);"><tspan dy="0" >Processa e persiste os lançamentos</tspan><tspan dy="1.2em" x="0" >no SGBD</tspan></text><g  id="v-281" color="#000000" transform="matrix(1,0,0,1,222.5,268)" style="fill: rgb(0, 0, 0);" display="none"><g ></g><g ></g><g ></g><g ></g></g><image  id="v-282"></image></g></g><!--z-index:30--><g   id="j_27"  transform="translate(220,2056)" style=""><g  id="v-286" style="opacity: 1;"><rect  id="v-287" rx="20" ry="20" stroke="#3c7fc0" stroke-width="2" pointer-events="visiblePainted" fill="#438dd5" width="450" height="300" style="fill: rgb(67, 141, 213); stroke: rgb(60, 127, 192);"></rect><text  id="v-288" font-size="34" xml:space="preserve" y="0.8em" font-weight="bold" text-anchor="middle" pointer-events="visible" font-family="Open Sans" fill="#ffffff" transform="matrix(1,0,0,1,225,73.7)" style="fill: rgb(255, 255, 255);"><tspan dy="0" >RabbitMQ</tspan></text><text  id="v-289" font-size="17" xml:space="preserve" y="0.8em" text-anchor="middle" font-family="Open Sans" fill="#ffffff" transform="matrix(1,0,0,1,225,114.5)" style="fill: rgb(255, 255, 255);"><tspan dy="0" >[Container: RabbitMQ Protocol]</tspan></text><text  id="v-290" font-size="24" xml:space="preserve" y="0.8em" text-anchor="middle" font-family="Open Sans" fill="#ffffff" transform="matrix(1,0,0,1,225,144.9)" style="fill: rgb(255, 255, 255);"><tspan dy="0" >Responsável por enviar as</tspan><tspan dy="1.2em" x="0" >solicitações de Dcoumentos para a</tspan><tspan dy="1.2em" x="0" >Integração</tspan></text><g  id="v-291" color="#ffffff" transform="matrix(1,0,0,1,222.5,268)" style="fill: rgb(255, 255, 255);" display="none"><g ></g><g ></g><g ></g><g ></g></g><image  id="v-292"></image></g></g><!--z-index:31--><g   id="j_28"  transform="translate(1720,347)" style=""><g  id="v-296" style="opacity: 1;"><rect  id="v-297" rx="10" ry="10" stroke="#7aa8de" stroke-width="2" pointer-events="visiblePainted" fill="#7aa8de" width="450" height="300" style="fill: rgb(122, 168, 222); stroke: rgb(122, 168, 222);"></rect><rect  id="v-298" rx="10" ry="10" stroke="#7aa8de" stroke-width="0" pointer-events="visiblePainted" fill="#88bbf7" width="430" height="250" x="10" y="40" style="fill: rgb(136, 187, 247);"></rect><ellipse  id="v-305" fill="#88bbf7" cx="20" cy="20" rx="10" ry="10" style="fill: rgb(136, 187, 247);"></ellipse><ellipse  id="v-306" fill="#88bbf7" cx="50" cy="20" rx="10" ry="10" style="fill: rgb(136, 187, 247);"></ellipse><ellipse  id="v-307" fill="#88bbf7" cx="80" cy="20" rx="10" ry="10" style="fill: rgb(136, 187, 247);"></ellipse><rect  id="v-299" rx="10" ry="10" stroke="#444444" stroke-width="0" pointer-events="visiblePainted" fill="#88bbf7" width="340" height="20" x="100" y="10" style="fill: rgb(136, 187, 247);"></rect><text  id="v-300" font-size="34" xml:space="preserve" y="0.8em" font-weight="bold" text-anchor="middle" pointer-events="visible" font-family="Open Sans" fill="#ffffff" transform="matrix(1,0,0,1,225,103.1)" style="fill: rgb(255, 255, 255);"><tspan dy="0" >Fluxo de Caixa</tspan></text><text  id="v-301" font-size="17" xml:space="preserve" y="0.8em" text-anchor="middle" font-family="Open Sans" fill="#ffffff" transform="matrix(1,0,0,1,225,143.9)" style="fill: rgb(255, 255, 255);"><tspan dy="0" >[Container: React/Vite]</tspan></text><text  id="v-302" font-size="24" xml:space="preserve" y="0.8em" text-anchor="middle" font-family="Open Sans" fill="#ffffff" transform="matrix(1,0,0,1,225,174.3)" style="fill: rgb(255, 255, 255);"><tspan dy="0" >Registra e exibe os lançamentos</tspan><tspan dy="1.2em" x="0" >financeiros</tspan></text><g  id="v-303" font-weight="normal" text-anchor="middle" color="#ffffff" transform="matrix(1,0,0,1,222.5,258)" style="fill: rgb(255, 255, 255);" display="none"><g ></g><g ></g><g ></g><g ></g></g><image  id="v-304"></image></g></g><!--z-index:32--><g   id="j_29" ><path  stroke="#aaaaaa" d="M 970 1007 L 670 887" id="v-323" stroke-width="2" stroke-dasharray="30 30" fill="none" style="opacity: 1;"></path><path  fill="black" stroke="black" d="M 0 0 0 0" transform="matrix(-0.928476707906966,-0.3713906337998342,0.3713906337998342,-0.928476707906966,970.0000610351562,1007)"></path><path  fill="#aaaaaa" stroke="#aaaaaa" d="M 20 0 L 0 10 L 20 20 z" id="v-325" transform="matrix(0.9284766955435519,0.371390664708372,-0.371390664708372,0.9284766955435519,673.7139297307111,877.7152546201372)" style="opacity: 1;"></path><path  d="M 970 1007 L 670 887" id="v-324" fill="none" style="cursor: auto; pointer-events: visiblepainted;"></path><g ><g id="v-314"  label-idx="0" cursor="move" transform="matrix(1,0,0,1,820,947)" style="cursor: default; opacity: 1;"><rect joint-selector="rect" id="v-318" fill="#111111" rx="3" ry="3" pointer-events="none" width="199.2584991455078" height="34.34210395812988" transform="matrix(1,0,0,1,-100.6,-17.2)"></rect><text joint-selector="text" id="v-317" font-size="24px" xml:space="preserve" y="0.8em" fill="#aaaaaa" text-anchor="middle" pointer-events="none" font-family="Open Sans" font-weight="normal" transform="matrix(1,0,0,1,0,-9.7)"><tspan dy="0" >Valida API-KEY na</tspan></text></g><g id="v-315"  label-idx="1" cursor="move" transform="matrix(1,0,0,1,820,973.4000244140625)" style="cursor: default; opacity: 1;"><rect joint-selector="rect" id="v-320" fill="#111111" rx="3" ry="3" pointer-events="none" width="110.02692413330078" height="22.89473819732666" transform="matrix(1,0,0,1,-54,-11.5)"></rect><text joint-selector="text" id="v-319" font-size="17px" xml:space="preserve" y="0.8em" fill="#aaaaaa" text-anchor="middle" pointer-events="none" font-family="Open Sans" font-weight="normal" transform="matrix(1,0,0,1,0,-6)"><tspan dy="0" >[HTTPS/JSON]</tspan></text></g><g id="v-316"  label-idx="2" cursor="move" transform="matrix(1,0,0,1,810,981.7999877929688)" style="cursor: default; opacity: 1;"><rect joint-selector="rect" id="v-322" fill="#ffffff" rx="3" ry="3"  width="0" height="0" transform="matrix(1,0,0,1,0,0)" display="none"></rect><text joint-selector="text" id="v-321" fill="#000000" font-size="14" text-anchor="middle" pointer-events="none"></text></g></g><g  display="none" style="display: none;"></g><g  id="v-327" display="none"><g  id="v-312"><path  end="source" d="M 26 0 L 0 13 L 26 26 z"></path></g><g  id="v-313"><path  end="target" d="M 26 0 L 0 13 L 26 26 z"></path></g></g><g  id="v-326" display="none"><g  id="v-311" transform="translate(932.8609323645896, 992.1443729458358) "><g  event="remove"><circle r="11"></circle><path transform="scale(.8) translate(-16, -16)" d="M24.778,21.419 19.276,15.917 24.777,10.415 21.949,7.585 16.447,13.087 10.945,7.585 8.117,10.415 13.618,15.917 8.116,21.419 10.946,24.248 16.447,18.746 21.948,24.248z"></path><title>Remove link.</title></g><g  event="link:options"><circle r="11" transform="translate(25)"></circle><path fill="white" transform="scale(.55) translate(29, -16)" d="M31.229,17.736c0.064-0.571,0.104-1.148,0.104-1.736s-0.04-1.166-0.104-1.737l-4.377-1.557c-0.218-0.716-0.504-1.401-0.851-2.05l1.993-4.192c-0.725-0.91-1.549-1.734-2.458-2.459l-4.193,1.994c-0.647-0.347-1.334-0.632-2.049-0.849l-1.558-4.378C17.165,0.708,16.588,0.667,16,0.667s-1.166,0.041-1.737,0.105L12.707,5.15c-0.716,0.217-1.401,0.502-2.05,0.849L6.464,4.005C5.554,4.73,4.73,5.554,4.005,6.464l1.994,4.192c-0.347,0.648-0.632,1.334-0.849,2.05l-4.378,1.557C0.708,14.834,0.667,15.412,0.667,16s0.041,1.165,0.105,1.736l4.378,1.558c0.217,0.715,0.502,1.401,0.849,2.049l-1.994,4.193c0.725,0.909,1.549,1.733,2.459,2.458l4.192-1.993c0.648,0.347,1.334,0.633,2.05,0.851l1.557,4.377c0.571,0.064,1.148,0.104,1.737,0.104c0.588,0,1.165-0.04,1.736-0.104l1.558-4.377c0.715-0.218,1.399-0.504,2.049-0.851l4.193,1.993c0.909-0.725,1.733-1.549,2.458-2.458l-1.993-4.193c0.347-0.647,0.633-1.334,0.851-2.049L31.229,17.736zM16,20.871c-2.69,0-4.872-2.182-4.872-4.871c0-2.69,2.182-4.872,4.872-4.872c2.689,0,4.871,2.182,4.871,4.872C20.871,18.689,18.689,20.871,16,20.871z"></path><title>Link options.</title></g></g></g></g><!--z-index:33--><g   id="j_30" ><path  stroke="#aaaaaa" d="M 1070 1547 L 570 947" id="v-343" stroke-width="2" stroke-dasharray="30 30" fill="none" style="opacity: 1;"></path><path  fill="black" stroke="black" d="M 0 0 0 0" transform="matrix(-0.6401844186703125,-0.7682212637591816,0.7682212637591816,-0.6401844186703125,1070.0001220703125,1547)"></path><path  fill="#aaaaaa" stroke="#aaaaaa" d="M 20 0 L 0 10 L 20 20 z" id="v-345" transform="matrix(0.6401844698177354,0.7682212211363242,-0.7682212211363242,0.6401844698177354,577.6822229819362,940.598133031866)" style="opacity: 1;"></path><path  d="M 1070 1547 L 570 947" id="v-344" fill="none" style="cursor: auto; pointer-events: visiblepainted;"></path><g ><g id="v-334"  label-idx="0" cursor="move" transform="matrix(1,0,0,1,820,1247)" style="cursor: default; opacity: 1;"><rect joint-selector="rect" id="v-338" fill="#111111" rx="3" ry="3" pointer-events="none" width="199.2584991455078" height="34.34210395812988" transform="matrix(1,0,0,1,-100.6,-17.2)"></rect><text joint-selector="text" id="v-337" font-size="24px" xml:space="preserve" y="0.8em" fill="#aaaaaa" text-anchor="middle" pointer-events="none" font-family="Open Sans" font-weight="normal" transform="matrix(1,0,0,1,0,-9.7)"><tspan dy="0" >Valida API-KEY na</tspan></text></g><g id="v-335"  label-idx="1" cursor="move" transform="matrix(1,0,0,1,820,1273.4000244140625)" style="cursor: default; opacity: 1;"><rect joint-selector="rect" id="v-340" fill="#111111" rx="3" ry="3" pointer-events="none" width="110.02692413330078" height="22.89473819732666" transform="matrix(1,0,0,1,-54,-11.5)"></rect><text joint-selector="text" id="v-339" font-size="17px" xml:space="preserve" y="0.8em" fill="#aaaaaa" text-anchor="middle" pointer-events="none" font-family="Open Sans" font-weight="normal" transform="matrix(1,0,0,1,0,-6)"><tspan dy="0" >[HTTPS/JSON]</tspan></text></g><g id="v-336"  label-idx="2" cursor="move" transform="matrix(1,0,0,1,810,1281.800048828125)" style="cursor: default; opacity: 1;"><rect joint-selector="rect" id="v-342" fill="#ffffff" rx="3" ry="3"  width="0" height="0" transform="matrix(1,0,0,1,0,0)" display="none"></rect><text joint-selector="text" id="v-341" fill="#000000" font-size="14" text-anchor="middle" pointer-events="none"></text></g></g><g  display="none" style="display: none;"></g><g  id="v-347" display="none"><g  id="v-332"><path  end="source" d="M 26 0 L 0 13 L 26 26 z"></path></g><g  id="v-333"><path  end="target" d="M 26 0 L 0 13 L 26 26 z"></path></g></g><g  id="v-346" display="none"><g  id="v-331" transform="translate(1044.3926240134208, 1516.271148816105) "><g  event="remove"><circle r="11"></circle><path transform="scale(.8) translate(-16, -16)" d="M24.778,21.419 19.276,15.917 24.777,10.415 21.949,7.585 16.447,13.087 10.945,7.585 8.117,10.415 13.618,15.917 8.116,21.419 10.946,24.248 16.447,18.746 21.948,24.248z"></path><title>Remove link.</title></g><g  event="link:options"><circle r="11" transform="translate(25)"></circle><path fill="white" transform="scale(.55) translate(29, -16)" d="M31.229,17.736c0.064-0.571,0.104-1.148,0.104-1.736s-0.04-1.166-0.104-1.737l-4.377-1.557c-0.218-0.716-0.504-1.401-0.851-2.05l1.993-4.192c-0.725-0.91-1.549-1.734-2.458-2.459l-4.193,1.994c-0.647-0.347-1.334-0.632-2.049-0.849l-1.558-4.378C17.165,0.708,16.588,0.667,16,0.667s-1.166,0.041-1.737,0.105L12.707,5.15c-0.716,0.217-1.401,0.502-2.05,0.849L6.464,4.005C5.554,4.73,4.73,5.554,4.005,6.464l1.994,4.192c-0.347,0.648-0.632,1.334-0.849,2.05l-4.378,1.557C0.708,14.834,0.667,15.412,0.667,16s0.041,1.165,0.105,1.736l4.378,1.558c0.217,0.715,0.502,1.401,0.849,2.049l-1.994,4.193c0.725,0.909,1.549,1.733,2.459,2.458l4.192-1.993c0.648,0.347,1.334,0.633,2.05,0.851l1.557,4.377c0.571,0.064,1.148,0.104,1.737,0.104c0.588,0,1.165-0.04,1.736-0.104l1.558-4.377c0.715-0.218,1.399-0.504,2.049-0.851l4.193,1.993c0.909-0.725,1.733-1.549,2.458-2.458l-1.993-4.193c0.347-0.647,0.633-1.334,0.851-2.049L31.229,17.736zM16,20.871c-2.69,0-4.872-2.182-4.872-4.871c0-2.69,2.182-4.872,4.872-4.872c2.689,0,4.871,2.182,4.871,4.872C20.871,18.689,18.689,20.871,16,20.871z"></path><title>Link options.</title></g></g></g></g><!--z-index:34--><g   id="j_31" ><path  stroke="#aaaaaa" d="M 1098 1847 L 675 2498 C 671.6666666666666 2503.333333333333 668 2508.6666666666665 664 2514 L 558 2656" id="v-364" stroke-width="2" stroke-dasharray="30 30" fill="none" style="opacity: 1;"></path><path  fill="black" stroke="black" d="M 0 0 0 0" transform="matrix(-0.5443686397491769,0.8388461027254229,-0.8388461027254229,-0.5443686397491769,1097.65771484375,1847)"></path><path  fill="#aaaaaa" stroke="#aaaaaa" d="M 20 0 L 0 10 L 20 20 z" id="v-366" transform="matrix(0.6000000826393695,-0.7999999380204661,0.7999999380204661,0.6000000826393695,549.4999997934019,2649.9999985538107)" style="opacity: 1;"></path><path  d="M 1098 1847 L 675 2498 C 671.6666666666666 2503.333333333333 668 2508.6666666666665 664 2514 L 558 2656" id="v-365" fill="none" style="cursor: auto; pointer-events: visiblepainted;"></path><g ><g id="v-355"  label-idx="0" cursor="move" transform="matrix(1,0,0,1,832.9348754882812,2254.93701171875)" style="cursor: default; opacity: 1;"><rect joint-selector="rect" id="v-359" fill="#111111" rx="3" ry="3" pointer-events="none" width="193.18710327148438" height="91.94210815429688" transform="matrix(1,0,0,1,-96.3,-46)"></rect><text joint-selector="text" id="v-358" font-size="24px" xml:space="preserve" y="0.8em" fill="#aaaaaa" text-anchor="middle" pointer-events="none" font-family="Open Sans" font-weight="normal" transform="matrix(1,0,0,1,0,-38.5)"><tspan dy="0" >Armazena</tspan><tspan dy="1.2em" x="0" >Lançamentos,</tspan><tspan dy="1.2em" x="0" >Consolidados em</tspan></text></g><g id="v-356"  label-idx="1" cursor="move" transform="matrix(1,0,0,1,832.9348754882812,2310.136962890625)" style="cursor: default; opacity: 1;"><rect joint-selector="rect" id="v-361" fill="#111111" rx="3" ry="3" pointer-events="none" width="173.76889038085938" height="22.89473819732666" transform="matrix(1,0,0,1,-85.9,-11.5)"></rect><text joint-selector="text" id="v-360" font-size="17px" xml:space="preserve" y="0.8em" fill="#aaaaaa" text-anchor="middle" pointer-events="none" font-family="Open Sans" font-weight="normal" transform="matrix(1,0,0,1,0,-6)"><tspan dy="0" >[DynamoDB Protocol]</tspan></text></g><g id="v-357"  label-idx="2" cursor="move" transform="matrix(1,0,0,1,822.9348754882812,2318.537109375)" style="cursor: default; opacity: 1;"><rect joint-selector="rect" id="v-363" fill="#ffffff" rx="3" ry="3"  width="0" height="0" transform="matrix(1,0,0,1,0,0)" display="none"></rect><text joint-selector="text" id="v-362" fill="#000000" font-size="14" text-anchor="middle" pointer-events="none"></text></g></g><g  display="none" style="display: none;"><g  transform="translate(670, 2506)" id="v-512"><circle  idx="0" r="10"></circle><path  idx="0" d="M16,5.333c-7.732,0-14,4.701-14,10.5c0,1.982,0.741,3.833,2.016,5.414L2,25.667l5.613-1.441c2.339,1.317,5.237,2.107,8.387,2.107c7.732,0,14-4.701,14-10.5C30,10.034,23.732,5.333,16,5.333z" transform="translate(5, -33)"></path><path  idx="0" transform="scale(.8) translate(9.5, -37)" d="M24.778,21.419 19.276,15.917 24.777,10.415 21.949,7.585 16.447,13.087 10.945,7.585 8.117,10.415 13.618,15.917 8.116,21.419 10.946,24.248 16.447,18.746 21.948,24.248z"><title>Remove vertex.</title></path></g></g><g  id="v-368" display="none"><g  id="v-353"><path  end="source" d="M 26 0 L 0 13 L 26 26 z"></path></g><g  id="v-354"><path  end="target" d="M 26 0 L 0 13 L 26 26 z"></path></g></g><g  id="v-367" display="none"><g  id="v-351" transform="translate(1076.2058992355269, 1880.5412756446142) "><g  event="remove"><circle r="11"></circle><path transform="scale(.8) translate(-16, -16)" d="M24.778,21.419 19.276,15.917 24.777,10.415 21.949,7.585 16.447,13.087 10.945,7.585 8.117,10.415 13.618,15.917 8.116,21.419 10.946,24.248 16.447,18.746 21.948,24.248z"></path><title>Remove link.</title></g><g  event="link:options"><circle r="11" transform="translate(25)"></circle><path fill="white" transform="scale(.55) translate(29, -16)" d="M31.229,17.736c0.064-0.571,0.104-1.148,0.104-1.736s-0.04-1.166-0.104-1.737l-4.377-1.557c-0.218-0.716-0.504-1.401-0.851-2.05l1.993-4.192c-0.725-0.91-1.549-1.734-2.458-2.459l-4.193,1.994c-0.647-0.347-1.334-0.632-2.049-0.849l-1.558-4.378C17.165,0.708,16.588,0.667,16,0.667s-1.166,0.041-1.737,0.105L12.707,5.15c-0.716,0.217-1.401,0.502-2.05,0.849L6.464,4.005C5.554,4.73,4.73,5.554,4.005,6.464l1.994,4.192c-0.347,0.648-0.632,1.334-0.849,2.05l-4.378,1.557C0.708,14.834,0.667,15.412,0.667,16s0.041,1.165,0.105,1.736l4.378,1.558c0.217,0.715,0.502,1.401,0.849,2.049l-1.994,4.193c0.725,0.909,1.549,1.733,2.459,2.458l4.192-1.993c0.648,0.347,1.334,0.633,2.05,0.851l1.557,4.377c0.571,0.064,1.148,0.104,1.737,0.104c0.588,0,1.165-0.04,1.736-0.104l1.558-4.377c0.715-0.218,1.399-0.504,2.049-0.851l4.193,1.993c0.909-0.725,1.733-1.549,2.458-2.458l-1.993-4.193c0.347-0.647,0.633-1.334,0.851-2.049L31.229,17.736zM16,20.871c-2.69,0-4.872-2.182-4.872-4.871c0-2.69,2.182-4.872,4.872-4.872c2.689,0,4.871,2.182,4.871,4.872C20.871,18.689,18.689,20.871,16,20.871z"></path><title>Link options.</title></g></g></g></g><!--z-index:35--><g   id="j_32" ><path  stroke="#aaaaaa" d="M 974 1847 L 666 2056" id="v-381" stroke-width="2" stroke-dasharray="30 30" fill="none" style="opacity: 1;"></path><path  fill="black" stroke="black" d="M 0 0 0 0" transform="matrix(-0.827439247025414,0.5615552443722842,-0.5615552443722842,-0.827439247025414,973.9784545898438,1847)"></path><path  fill="#aaaaaa" stroke="#aaaaaa" d="M 20 0 L 0 10 L 20 20 z" id="v-383" transform="matrix(0.8274392470254137,-0.5615552443722847,0.5615552443722847,0.8274392470254137,660.4060755938359,2047.7256814578434)" style="opacity: 1;"></path><path  d="M 974 1847 L 666 2056" id="v-382" fill="none" style="cursor: auto; pointer-events: visiblepainted;"></path><g ><g id="v-372"  label-idx="0" cursor="move" transform="matrix(1,0,0,1,820,1951.5)" style="cursor: default; opacity: 1;"><rect joint-selector="rect" id="v-376" fill="#111111" rx="3" ry="3" pointer-events="none" width="141.82998657226562" height="34.34210395812988" transform="matrix(1,0,0,1,-70,-17.2)"></rect><text joint-selector="text" id="v-375" font-size="24px" xml:space="preserve" y="0.8em" fill="#aaaaaa" text-anchor="middle" pointer-events="none" font-family="Open Sans" font-weight="normal" transform="matrix(1,0,0,1,0,-9.7)"><tspan dy="0" >Consome de</tspan></text></g><g id="v-373"  label-idx="1" cursor="move" transform="matrix(1,0,0,1,820,1977.9000244140625)" style="cursor: default; opacity: 1;"><rect joint-selector="rect" id="v-378" fill="#111111" rx="3" ry="3" pointer-events="none" width="271.5958251953125" height="22.89473819732666" transform="matrix(1,0,0,1,-134.8,-11.5)"></rect><text joint-selector="text" id="v-377" font-size="17px" xml:space="preserve" y="0.8em" fill="#aaaaaa" text-anchor="middle" pointer-events="none" font-family="Open Sans" font-weight="normal" transform="matrix(1,0,0,1,0,-6)"><tspan dy="0" >[(Integracoes)-&gt;fluxo-caixa-queue]</tspan></text></g><g id="v-374"  label-idx="2" cursor="move" transform="matrix(1,0,0,1,810,1986.300048828125)" style="cursor: default; opacity: 1;"><rect joint-selector="rect" id="v-380" fill="#ffffff" rx="3" ry="3"  width="0" height="0" transform="matrix(1,0,0,1,0,0)" display="none"></rect><text joint-selector="text" id="v-379" fill="#000000" font-size="14" text-anchor="middle" pointer-events="none"></text></g></g><g  display="none" style="display: none;"></g><g  id="v-385" display="none"><g  id="v-370"><path  end="source" d="M 26 0 L 0 13 L 26 26 z"></path></g><g  id="v-371"><path  end="target" d="M 26 0 L 0 13 L 26 26 z"></path></g></g><g  id="v-384" display="none"><g  id="v-369" transform="translate(940.9009690243297, 1869.4600567334905) "><g  event="remove"><circle r="11"></circle><path transform="scale(.8) translate(-16, -16)" d="M24.778,21.419 19.276,15.917 24.777,10.415 21.949,7.585 16.447,13.087 10.945,7.585 8.117,10.415 13.618,15.917 8.116,21.419 10.946,24.248 16.447,18.746 21.948,24.248z"></path><title>Remove link.</title></g><g  event="link:options"><circle r="11" transform="translate(25)"></circle><path fill="white" transform="scale(.55) translate(29, -16)" d="M31.229,17.736c0.064-0.571,0.104-1.148,0.104-1.736s-0.04-1.166-0.104-1.737l-4.377-1.557c-0.218-0.716-0.504-1.401-0.851-2.05l1.993-4.192c-0.725-0.91-1.549-1.734-2.458-2.459l-4.193,1.994c-0.647-0.347-1.334-0.632-2.049-0.849l-1.558-4.378C17.165,0.708,16.588,0.667,16,0.667s-1.166,0.041-1.737,0.105L12.707,5.15c-0.716,0.217-1.401,0.502-2.05,0.849L6.464,4.005C5.554,4.73,4.73,5.554,4.005,6.464l1.994,4.192c-0.347,0.648-0.632,1.334-0.849,2.05l-4.378,1.557C0.708,14.834,0.667,15.412,0.667,16s0.041,1.165,0.105,1.736l4.378,1.558c0.217,0.715,0.502,1.401,0.849,2.049l-1.994,4.193c0.725,0.909,1.549,1.733,2.459,2.458l4.192-1.993c0.648,0.347,1.334,0.633,2.05,0.851l1.557,4.377c0.571,0.064,1.148,0.104,1.737,0.104c0.588,0,1.165-0.04,1.736-0.104l1.558-4.377c0.715-0.218,1.399-0.504,2.049-0.851l4.193,1.993c0.909-0.725,1.733-1.549,2.458-2.458l-1.993-4.193c0.347-0.647,0.633-1.334,0.851-2.049L31.229,17.736zM16,20.871c-2.69,0-4.872-2.182-4.872-4.871c0-2.69,2.182-4.872,4.872-4.872c2.689,0,4.871,2.182,4.871,4.872C20.871,18.689,18.689,20.871,16,20.871z"></path><title>Link options.</title></g></g></g></g><!--z-index:36--><g   id="j_33" ><path  stroke="#aaaaaa" d="M 1083 647 L 976 789 C 972 794.3333333333333 969.3333333333333 800.3333333333333 968 807 L 672 2016 C 670.6666666666666 2022.6666666666665 667.3333333333333 2027.9999999999998 662 2032 L 633 2056" id="v-400" stroke-width="2" stroke-dasharray="30 30" fill="none" style="opacity: 1;"></path><path  fill="black" stroke="black" d="M 0 0 0 0" transform="matrix(-0.6000001891657996,0.7999998581256154,-0.7999998581256154,-0.6000001891657996,1082.5,647)"></path><path  fill="#aaaaaa" stroke="#aaaaaa" d="M 20 0 L 0 10 L 20 20 z" id="v-402" transform="matrix(0.7808686753084834,-0.624695215222571,0.624695215222571,0.7808686753084834,626.2530769150023,2048.1911950866406)" style="opacity: 1;"></path><path  d="M 1083 647 L 976 789 C 972 794.3333333333333 969.3333333333333 800.3333333333333 968 807 L 672 2016 C 670.6666666666666 2022.6666666666665 667.3333333333333 2027.9999999999998 662 2032 L 633 2056" id="v-401" fill="none" style="cursor: auto; pointer-events: visiblepainted;"></path><g ><g id="v-391"  label-idx="0" cursor="move" transform="matrix(1,0,0,1,836.730224609375,1343.166015625)" style="cursor: default; opacity: 1;"><rect joint-selector="rect" id="v-395" fill="#111111" rx="3" ry="3" pointer-events="none" width="138.47178649902344" height="34.34210395812988" transform="matrix(1,0,0,1,-68.3,-17.2)"></rect><text joint-selector="text" id="v-394" font-size="24px" xml:space="preserve" y="0.8em" fill="#aaaaaa" text-anchor="middle" pointer-events="none" font-family="Open Sans" font-weight="normal" transform="matrix(1,0,0,1,0,-9.7)"><tspan dy="0" >Produz para</tspan></text></g><g id="v-392"  label-idx="1" cursor="move" transform="matrix(1,0,0,1,836.730224609375,1369.5660400390625)" style="cursor: default; opacity: 1;"><rect joint-selector="rect" id="v-397" fill="#111111" rx="3" ry="3" pointer-events="none" width="154.09417724609375" height="22.89473819732666" transform="matrix(1,0,0,1,-76,-11.5)"></rect><text joint-selector="text" id="v-396" font-size="17px" xml:space="preserve" y="0.8em" fill="#aaaaaa" text-anchor="middle" pointer-events="none" font-family="Open Sans" font-weight="normal" transform="matrix(1,0,0,1,0,-6)"><tspan dy="0" >[fluxo-caixa-queue]</tspan></text></g><g id="v-393"  label-idx="2" cursor="move" transform="matrix(1,0,0,1,826.730224609375,1377.966064453125)" style="cursor: default; opacity: 1;"><rect joint-selector="rect" id="v-399" fill="#ffffff" rx="3" ry="3"  width="0" height="0" transform="matrix(1,0,0,1,0,0)" display="none"></rect><text joint-selector="text" id="v-398" fill="#000000" font-size="14" text-anchor="middle" pointer-events="none"></text></g></g><g  display="none" style="display: none;"><g  transform="translate(970, 797)" id="v-513"><circle  idx="0" r="10"></circle><path  idx="0" d="M16,5.333c-7.732,0-14,4.701-14,10.5c0,1.982,0.741,3.833,2.016,5.414L2,25.667l5.613-1.441c2.339,1.317,5.237,2.107,8.387,2.107c7.732,0,14-4.701,14-10.5C30,10.034,23.732,5.333,16,5.333z" transform="translate(5, -33)"></path><path  idx="0" transform="scale(.8) translate(9.5, -37)" d="M24.778,21.419 19.276,15.917 24.777,10.415 21.949,7.585 16.447,13.087 10.945,7.585 8.117,10.415 13.618,15.917 8.116,21.419 10.946,24.248 16.447,18.746 21.948,24.248z"><title>Remove vertex.</title></path></g><g  transform="translate(670, 2026)" id="v-514"><circle  idx="1" r="10"></circle><path  idx="1" d="M16,5.333c-7.732,0-14,4.701-14,10.5c0,1.982,0.741,3.833,2.016,5.414L2,25.667l5.613-1.441c2.339,1.317,5.237,2.107,8.387,2.107c7.732,0,14-4.701,14-10.5C30,10.034,23.732,5.333,16,5.333z" transform="translate(5, -33)"></path><path  idx="1" transform="scale(.8) translate(9.5, -37)" d="M24.778,21.419 19.276,15.917 24.777,10.415 21.949,7.585 16.447,13.087 10.945,7.585 8.117,10.415 13.618,15.917 8.116,21.419 10.946,24.248 16.447,18.746 21.948,24.248z"><title>Remove vertex.</title></path></g></g><g  id="v-404" display="none"><g  id="v-389"><path  end="source" d="M 26 0 L 0 13 L 26 26 z"></path></g><g  id="v-390"><path  end="target" d="M 26 0 L 0 13 L 26 26 z"></path></g></g><g  id="v-403" display="none"><g  id="v-386" transform="translate(1058.9280699156411, 678.9459259063457) "><g  event="remove"><circle r="11"></circle><path transform="scale(.8) translate(-16, -16)" d="M24.778,21.419 19.276,15.917 24.777,10.415 21.949,7.585 16.447,13.087 10.945,7.585 8.117,10.415 13.618,15.917 8.116,21.419 10.946,24.248 16.447,18.746 21.948,24.248z"></path><title>Remove link.</title></g><g  event="link:options"><circle r="11" transform="translate(25)"></circle><path fill="white" transform="scale(.55) translate(29, -16)" d="M31.229,17.736c0.064-0.571,0.104-1.148,0.104-1.736s-0.04-1.166-0.104-1.737l-4.377-1.557c-0.218-0.716-0.504-1.401-0.851-2.05l1.993-4.192c-0.725-0.91-1.549-1.734-2.458-2.459l-4.193,1.994c-0.647-0.347-1.334-0.632-2.049-0.849l-1.558-4.378C17.165,0.708,16.588,0.667,16,0.667s-1.166,0.041-1.737,0.105L12.707,5.15c-0.716,0.217-1.401,0.502-2.05,0.849L6.464,4.005C5.554,4.73,4.73,5.554,4.005,6.464l1.994,4.192c-0.347,0.648-0.632,1.334-0.849,2.05l-4.378,1.557C0.708,14.834,0.667,15.412,0.667,16s0.041,1.165,0.105,1.736l4.378,1.558c0.217,0.715,0.502,1.401,0.849,2.049l-1.994,4.193c0.725,0.909,1.549,1.733,2.459,2.458l4.192-1.993c0.648,0.347,1.334,0.633,2.05,0.851l1.557,4.377c0.571,0.064,1.148,0.104,1.737,0.104c0.588,0,1.165-0.04,1.736-0.104l1.558-4.377c0.715-0.218,1.399-0.504,2.049-0.851l4.193,1.993c0.909-0.725,1.733-1.549,2.458-2.458l-1.993-4.193c0.347-0.647,0.633-1.334,0.851-2.049L31.229,17.736zM16,20.871c-2.69,0-4.872-2.182-4.872-4.871c0-2.69,2.182-4.872,4.872-4.872c2.689,0,4.871,2.182,4.871,4.872C20.871,18.689,18.689,20.871,16,20.871z"></path><title>Link options.</title></g></g></g></g><!--z-index:37--><g   id="j_34" ><path  stroke="#aaaaaa" d="M 1083 1247 L 976 1389 C 972 1394.3333333333333 968.6666666666666 1400 966 1406 L 674 2017 C 671.3333333333333 2022.9999999999998 667.3333333333333 2027.9999999999998 662 2032 L 633 2056" id="v-419" stroke-width="2" stroke-dasharray="30 30" fill="none" style="opacity: 1;"></path><path  fill="black" stroke="black" d="M 0 0 0 0" transform="matrix(-0.6000001891657996,0.7999998581256154,-0.7999998581256154,-0.6000001891657996,1082.5,1247)"></path><path  fill="#aaaaaa" stroke="#aaaaaa" d="M 20 0 L 0 10 L 20 20 z" id="v-421" transform="matrix(0.7808686753084834,-0.624695215222571,0.624695215222571,0.7808686753084834,626.2530769150023,2048.1911950866406)" style="opacity: 1;"></path><path  d="M 1083 1247 L 976 1389 C 972 1394.3333333333333 968.6666666666666 1400 966 1406 L 674 2017 C 671.3333333333333 2022.9999999999998 667.3333333333333 2027.9999999999998 662 2032 L 633 2056" id="v-420" fill="none" style="cursor: auto; pointer-events: visiblepainted;"></path><g ><g id="v-410"  label-idx="0" cursor="move" transform="matrix(1,0,0,1,850.2911987304688,1648.11669921875)" style="cursor: default; opacity: 1;"><rect joint-selector="rect" id="v-414" fill="#111111" rx="3" ry="3" pointer-events="none" width="138.47178649902344" height="34.34210395812988" transform="matrix(1,0,0,1,-68.3,-17.2)"></rect><text joint-selector="text" id="v-413" font-size="24px" xml:space="preserve" y="0.8em" fill="#aaaaaa" text-anchor="middle" pointer-events="none" font-family="Open Sans" font-weight="normal" transform="matrix(1,0,0,1,0,-9.7)"><tspan dy="0" >Produz para</tspan></text></g><g id="v-411"  label-idx="1" cursor="move" transform="matrix(1,0,0,1,850.2911987304688,1674.5167236328125)" style="cursor: default; opacity: 1;"><rect joint-selector="rect" id="v-416" fill="#111111" rx="3" ry="3" pointer-events="none" width="154.09417724609375" height="22.89473819732666" transform="matrix(1,0,0,1,-76,-11.5)"></rect><text joint-selector="text" id="v-415" font-size="17px" xml:space="preserve" y="0.8em" fill="#aaaaaa" text-anchor="middle" pointer-events="none" font-family="Open Sans" font-weight="normal" transform="matrix(1,0,0,1,0,-6)"><tspan dy="0" >[fluxo-caixa-queue]</tspan></text></g><g id="v-412"  label-idx="2" cursor="move" transform="matrix(1,0,0,1,840.2911987304688,1682.9166259765625)" style="cursor: default; opacity: 1;"><rect joint-selector="rect" id="v-418" fill="#ffffff" rx="3" ry="3"  width="0" height="0" transform="matrix(1,0,0,1,0,0)" display="none"></rect><text joint-selector="text" id="v-417" fill="#000000" font-size="14" text-anchor="middle" pointer-events="none"></text></g></g><g  display="none" style="display: none;"><g  transform="translate(970, 1397)" id="v-515"><circle  idx="0" r="10"></circle><path  idx="0" d="M16,5.333c-7.732,0-14,4.701-14,10.5c0,1.982,0.741,3.833,2.016,5.414L2,25.667l5.613-1.441c2.339,1.317,5.237,2.107,8.387,2.107c7.732,0,14-4.701,14-10.5C30,10.034,23.732,5.333,16,5.333z" transform="translate(5, -33)"></path><path  idx="0" transform="scale(.8) translate(9.5, -37)" d="M24.778,21.419 19.276,15.917 24.777,10.415 21.949,7.585 16.447,13.087 10.945,7.585 8.117,10.415 13.618,15.917 8.116,21.419 10.946,24.248 16.447,18.746 21.948,24.248z"><title>Remove vertex.</title></path></g><g  transform="translate(670, 2026)" id="v-516"><circle  idx="1" r="10"></circle><path  idx="1" d="M16,5.333c-7.732,0-14,4.701-14,10.5c0,1.982,0.741,3.833,2.016,5.414L2,25.667l5.613-1.441c2.339,1.317,5.237,2.107,8.387,2.107c7.732,0,14-4.701,14-10.5C30,10.034,23.732,5.333,16,5.333z" transform="translate(5, -33)"></path><path  idx="1" transform="scale(.8) translate(9.5, -37)" d="M24.778,21.419 19.276,15.917 24.777,10.415 21.949,7.585 16.447,13.087 10.945,7.585 8.117,10.415 13.618,15.917 8.116,21.419 10.946,24.248 16.447,18.746 21.948,24.248z"><title>Remove vertex.</title></path></g></g><g  id="v-423" display="none"><g  id="v-408"><path  end="source" d="M 26 0 L 0 13 L 26 26 z"></path></g><g  id="v-409"><path  end="target" d="M 26 0 L 0 13 L 26 26 z"></path></g></g><g  id="v-422" display="none"><g  id="v-405" transform="translate(1058.9280699156411, 1278.9459259063458) "><g  event="remove"><circle r="11"></circle><path transform="scale(.8) translate(-16, -16)" d="M24.778,21.419 19.276,15.917 24.777,10.415 21.949,7.585 16.447,13.087 10.945,7.585 8.117,10.415 13.618,15.917 8.116,21.419 10.946,24.248 16.447,18.746 21.948,24.248z"></path><title>Remove link.</title></g><g  event="link:options"><circle r="11" transform="translate(25)"></circle><path fill="white" transform="scale(.55) translate(29, -16)" d="M31.229,17.736c0.064-0.571,0.104-1.148,0.104-1.736s-0.04-1.166-0.104-1.737l-4.377-1.557c-0.218-0.716-0.504-1.401-0.851-2.05l1.993-4.192c-0.725-0.91-1.549-1.734-2.458-2.459l-4.193,1.994c-0.647-0.347-1.334-0.632-2.049-0.849l-1.558-4.378C17.165,0.708,16.588,0.667,16,0.667s-1.166,0.041-1.737,0.105L12.707,5.15c-0.716,0.217-1.401,0.502-2.05,0.849L6.464,4.005C5.554,4.73,4.73,5.554,4.005,6.464l1.994,4.192c-0.347,0.648-0.632,1.334-0.849,2.05l-4.378,1.557C0.708,14.834,0.667,15.412,0.667,16s0.041,1.165,0.105,1.736l4.378,1.558c0.217,0.715,0.502,1.401,0.849,2.049l-1.994,4.193c0.725,0.909,1.549,1.733,2.459,2.458l4.192-1.993c0.648,0.347,1.334,0.633,2.05,0.851l1.557,4.377c0.571,0.064,1.148,0.104,1.737,0.104c0.588,0,1.165-0.04,1.736-0.104l1.558-4.377c0.715-0.218,1.399-0.504,2.049-0.851l4.193,1.993c0.909-0.725,1.733-1.549,2.458-2.458l-1.993-4.193c0.347-0.647,0.633-1.334,0.851-2.049L31.229,17.736zM16,20.871c-2.69,0-4.872-2.182-4.872-4.871c0-2.69,2.182-4.872,4.872-4.872c2.689,0,4.871,2.182,4.871,4.872C20.871,18.689,18.689,20.871,16,20.871z"></path><title>Link options.</title></g></g></g></g><!--z-index:38--><g   id="j_35" ><path  stroke="#aaaaaa" d="M 1720 497 L 1420 497" id="v-439" stroke-width="2" stroke-dasharray="30 30" fill="none" style="opacity: 1;"></path><path  fill="black" stroke="black" d="M 0 0 0 0" transform="matrix(-1,1.2246467991473532e-16,-1.2246467991473532e-16,-1,1720.0001220703125,497)"></path><path  fill="#aaaaaa" stroke="#aaaaaa" d="M 20 0 L 0 10 L 20 20 z" id="v-441" transform="matrix(1,0,0,1,1420.000122070313,487)" style="opacity: 1;"></path><path  d="M 1720 497 L 1420 497" id="v-440" fill="none" style="cursor: auto; pointer-events: visiblepainted;"></path><g ><g id="v-430"  label-idx="0" cursor="move" transform="matrix(1,0,0,1,1570,497)" style="cursor: default; opacity: 1;"><rect joint-selector="rect" id="v-434" fill="#111111" rx="3" ry="3" pointer-events="none" width="175.4344482421875" height="91.94210815429688" transform="matrix(1,0,0,1,-86.8,-46)"></rect><text joint-selector="text" id="v-433" font-size="24px" xml:space="preserve" y="0.8em" fill="#aaaaaa" text-anchor="middle" pointer-events="none" font-family="Open Sans" font-weight="normal" transform="matrix(1,0,0,1,0,-38.5)"><tspan dy="0" >Recupera</tspan><tspan dy="1.2em" x="0" >informações de</tspan><tspan dy="1.2em" x="0" >lançamento</tspan></text></g><g id="v-431"  label-idx="1" cursor="move" transform="matrix(1,0,0,1,1570,552.2000122070312)" style="cursor: default; opacity: 1;"><rect joint-selector="rect" id="v-436" fill="#111111" rx="3" ry="3" pointer-events="none" width="173.76889038085938" height="22.89473819732666" transform="matrix(1,0,0,1,-85.9,-11.5)"></rect><text joint-selector="text" id="v-435" font-size="17px" xml:space="preserve" y="0.8em" fill="#aaaaaa" text-anchor="middle" pointer-events="none" font-family="Open Sans" font-weight="normal" transform="matrix(1,0,0,1,0,-6)"><tspan dy="0" >[DynamoDB Protocol]</tspan></text></g><g id="v-432"  label-idx="2" cursor="move" transform="matrix(1,0,0,1,1560,560.5999755859375)" style="cursor: default; opacity: 1;"><rect joint-selector="rect" id="v-438" fill="#ffffff" rx="3" ry="3"  width="0" height="0" transform="matrix(1,0,0,1,0,0)" display="none"></rect><text joint-selector="text" id="v-437" fill="#000000" font-size="14" text-anchor="middle" pointer-events="none"></text></g></g><g  display="none" style="display: none;"></g><g  id="v-443" display="none"><g  id="v-428"><path  end="source" d="M 26 0 L 0 13 L 26 26 z"></path></g><g  id="v-429"><path  end="target" d="M 26 0 L 0 13 L 26 26 z"></path></g></g><g  id="v-442" display="none"><g  id="v-427" transform="translate(1680, 497) "><g  event="remove"><circle r="11"></circle><path transform="scale(.8) translate(-16, -16)" d="M24.778,21.419 19.276,15.917 24.777,10.415 21.949,7.585 16.447,13.087 10.945,7.585 8.117,10.415 13.618,15.917 8.116,21.419 10.946,24.248 16.447,18.746 21.948,24.248z"></path><title>Remove link.</title></g><g  event="link:options"><circle r="11" transform="translate(25)"></circle><path fill="white" transform="scale(.55) translate(29, -16)" d="M31.229,17.736c0.064-0.571,0.104-1.148,0.104-1.736s-0.04-1.166-0.104-1.737l-4.377-1.557c-0.218-0.716-0.504-1.401-0.851-2.05l1.993-4.192c-0.725-0.91-1.549-1.734-2.458-2.459l-4.193,1.994c-0.647-0.347-1.334-0.632-2.049-0.849l-1.558-4.378C17.165,0.708,16.588,0.667,16,0.667s-1.166,0.041-1.737,0.105L12.707,5.15c-0.716,0.217-1.401,0.502-2.05,0.849L6.464,4.005C5.554,4.73,4.73,5.554,4.005,6.464l1.994,4.192c-0.347,0.648-0.632,1.334-0.849,2.05l-4.378,1.557C0.708,14.834,0.667,15.412,0.667,16s0.041,1.165,0.105,1.736l4.378,1.558c0.217,0.715,0.502,1.401,0.849,2.049l-1.994,4.193c0.725,0.909,1.549,1.733,2.459,2.458l4.192-1.993c0.648,0.347,1.334,0.633,2.05,0.851l1.557,4.377c0.571,0.064,1.148,0.104,1.737,0.104c0.588,0,1.165-0.04,1.736-0.104l1.558-4.377c0.715-0.218,1.399-0.504,2.049-0.851l4.193,1.993c0.909-0.725,1.733-1.549,2.458-2.458l-1.993-4.193c0.347-0.647,0.633-1.334,0.851-2.049L31.229,17.736zM16,20.871c-2.69,0-4.872-2.182-4.872-4.871c0-2.69,2.182-4.872,4.872-4.872c2.689,0,4.871,2.182,4.871,4.872C20.871,18.689,18.689,20.871,16,20.871z"></path><title>Link options.</title></g></g></g></g><!--z-index:39--><g   id="j_36" ><path  stroke="#aaaaaa" d="M 1758 647 L 1383 947" id="v-459" stroke-width="2" stroke-dasharray="30 30" fill="none" style="opacity: 1;"></path><path  fill="black" stroke="black" d="M 0 0 0 0" transform="matrix(-0.7808688416748546,0.6246950072646418,-0.6246950072646418,-0.7808688416748546,1757.5001220703125,647)"></path><path  fill="#aaaaaa" stroke="#aaaaaa" d="M 20 0 L 0 10 L 20 20 z" id="v-461" transform="matrix(0.7808690080411709,-0.6246947993066677,0.6246947993066677,0.7808690080411709,1376.2530777468344,939.1913707056234)" style="opacity: 1;"></path><path  d="M 1758 647 L 1383 947" id="v-460" fill="none" style="cursor: auto; pointer-events: visiblepainted;"></path><g ><g id="v-450"  label-idx="0" cursor="move" transform="matrix(1,0,0,1,1570.5,797)" style="cursor: default; opacity: 1;"><rect joint-selector="rect" id="v-454" fill="#111111" rx="3" ry="3" pointer-events="none" width="147.0271453857422" height="91.94210815429688" transform="matrix(1,0,0,1,-73.5,-46)"></rect><text joint-selector="text" id="v-453" font-size="24px" xml:space="preserve" y="0.8em" fill="#aaaaaa" text-anchor="middle" pointer-events="none" font-family="Open Sans" font-weight="normal" transform="matrix(1,0,0,1,0,-38.5)"><tspan dy="0" >Recupera</tspan><tspan dy="1.2em" x="0" >lançamentos</tspan><tspan dy="1.2em" x="0" >consolidados</tspan></text></g><g id="v-451"  label-idx="1" cursor="move" transform="matrix(1,0,0,1,1570.5,852.2000122070312)" style="cursor: default; opacity: 1;"><rect joint-selector="rect" id="v-456" fill="#111111" rx="3" ry="3" pointer-events="none" width="173.76889038085938" height="22.89473819732666" transform="matrix(1,0,0,1,-85.9,-11.5)"></rect><text joint-selector="text" id="v-455" font-size="17px" xml:space="preserve" y="0.8em" fill="#aaaaaa" text-anchor="middle" pointer-events="none" font-family="Open Sans" font-weight="normal" transform="matrix(1,0,0,1,0,-6)"><tspan dy="0" >[DynamoDB Protocol]</tspan></text></g><g id="v-452"  label-idx="2" cursor="move" transform="matrix(1,0,0,1,1560.5,860.5999755859375)" style="cursor: default; opacity: 1;"><rect joint-selector="rect" id="v-458" fill="#ffffff" rx="3" ry="3"  width="0" height="0" transform="matrix(1,0,0,1,0,0)" display="none"></rect><text joint-selector="text" id="v-457" fill="#000000" font-size="14" text-anchor="middle" pointer-events="none"></text></g></g><g  display="none" style="display: none;"></g><g  id="v-463" display="none"><g  id="v-448"><path  end="source" d="M 26 0 L 0 13 L 26 26 z"></path></g><g  id="v-449"><path  end="target" d="M 26 0 L 0 13 L 26 26 z"></path></g></g><g  id="v-462" display="none"><g  id="v-447" transform="translate(1726.7652476222788, 671.9878019021769) "><g  event="remove"><circle r="11"></circle><path transform="scale(.8) translate(-16, -16)" d="M24.778,21.419 19.276,15.917 24.777,10.415 21.949,7.585 16.447,13.087 10.945,7.585 8.117,10.415 13.618,15.917 8.116,21.419 10.946,24.248 16.447,18.746 21.948,24.248z"></path><title>Remove link.</title></g><g  event="link:options"><circle r="11" transform="translate(25)"></circle><path fill="white" transform="scale(.55) translate(29, -16)" d="M31.229,17.736c0.064-0.571,0.104-1.148,0.104-1.736s-0.04-1.166-0.104-1.737l-4.377-1.557c-0.218-0.716-0.504-1.401-0.851-2.05l1.993-4.192c-0.725-0.91-1.549-1.734-2.458-2.459l-4.193,1.994c-0.647-0.347-1.334-0.632-2.049-0.849l-1.558-4.378C17.165,0.708,16.588,0.667,16,0.667s-1.166,0.041-1.737,0.105L12.707,5.15c-0.716,0.217-1.401,0.502-2.05,0.849L6.464,4.005C5.554,4.73,4.73,5.554,4.005,6.464l1.994,4.192c-0.347,0.648-0.632,1.334-0.849,2.05l-4.378,1.557C0.708,14.834,0.667,15.412,0.667,16s0.041,1.165,0.105,1.736l4.378,1.558c0.217,0.715,0.502,1.401,0.849,2.049l-1.994,4.193c0.725,0.909,1.549,1.733,2.459,2.458l4.192-1.993c0.648,0.347,1.334,0.633,2.05,0.851l1.557,4.377c0.571,0.064,1.148,0.104,1.737,0.104c0.588,0,1.165-0.04,1.736-0.104l1.558-4.377c0.715-0.218,1.399-0.504,2.049-0.851l4.193,1.993c0.909-0.725,1.733-1.549,2.458-2.458l-1.993-4.193c0.347-0.647,0.633-1.334,0.851-2.049L31.229,17.736zM16,20.871c-2.69,0-4.872-2.182-4.872-4.871c0-2.69,2.182-4.872,4.872-4.872c2.689,0,4.871,2.182,4.871,4.872C20.871,18.689,18.689,20.871,16,20.871z"></path><title>Link options.</title></g></g></g></g><!--z-index:40--><g   id="j_37" ><path  stroke="#aaaaaa" d="M 1735 347 L 1532 203 C 1526.6666666666665 198.99999999999997 1520.6666666666665 196.99999999999997 1514 197 L 980 197 C 973.3333333333333 196.99999999999997 967.6666666666666 199.66666666666663 963 205 L 576 647" id="v-481" stroke-width="2" stroke-dasharray="30 30" fill="none" style="opacity: 1;"></path><path  fill="black" stroke="black" d="M 0 0 0 0" transform="matrix(-0.81438653204491,-0.5803228208711638,0.5803228208711638,-0.81438653204491,1734.5001220703125,347)"></path><path  fill="#aaaaaa" stroke="#aaaaaa" d="M 20 0 L 0 10 L 20 20 z" id="v-483" transform="matrix(0.6585044492014065,-0.7525768335405709,0.7525768335405709,0.6585044492014065,568.7242091452367,640.4149670074538)" style="opacity: 1;"></path><path  d="M 1735 347 L 1532 203 C 1526.6666666666665 198.99999999999997 1520.6666666666665 196.99999999999997 1514 197 L 980 197 C 973.3333333333333 196.99999999999997 967.6666666666666 199.66666666666663 963 205 L 576 647" id="v-482" fill="none" style="cursor: auto; pointer-events: visiblepainted;"></path><g ><g id="v-472"  label-idx="0" cursor="move" transform="matrix(1,0,0,1,1077.6551513671875,197)" style="cursor: default; opacity: 1;"><rect joint-selector="rect" id="v-476" fill="#111111" rx="3" ry="3" pointer-events="none" width="201.20074462890625" height="63.14210891723633" transform="matrix(1,0,0,1,-102.1,-31.6)"></rect><text joint-selector="text" id="v-475" font-size="24px" xml:space="preserve" y="0.8em" fill="#aaaaaa" text-anchor="middle" pointer-events="none" font-family="Open Sans" font-weight="normal" transform="matrix(1,0,0,1,0,-24.1)"><tspan dy="0" >Autentica usuário</tspan><tspan dy="1.2em" x="0" >no</tspan></text></g><g id="v-473"  label-idx="1" cursor="move" transform="matrix(1,0,0,1,1077.6551513671875,237.8000030517578)" style="cursor: default; opacity: 1;"><rect joint-selector="rect" id="v-478" fill="#111111" rx="3" ry="3" pointer-events="none" width="110.02692413330078" height="22.89473819732666" transform="matrix(1,0,0,1,-54,-11.5)"></rect><text joint-selector="text" id="v-477" font-size="17px" xml:space="preserve" y="0.8em" fill="#aaaaaa" text-anchor="middle" pointer-events="none" font-family="Open Sans" font-weight="normal" transform="matrix(1,0,0,1,0,-6)"><tspan dy="0" >[HTTPS/JSON]</tspan></text></g><g id="v-474"  label-idx="2" cursor="move" transform="matrix(1,0,0,1,1067.6551513671875,246.1999969482422)" style="cursor: default; opacity: 1;"><rect joint-selector="rect" id="v-480" fill="#ffffff" rx="3" ry="3"  width="0" height="0" transform="matrix(1,0,0,1,0,0)" display="none"></rect><text joint-selector="text" id="v-479" fill="#000000" font-size="14" text-anchor="middle" pointer-events="none"></text></g></g><g  display="none" style="display: none;"><g  transform="translate(1524, 197)" id="v-517"><circle  idx="0" r="10"></circle><path  idx="0" d="M16,5.333c-7.732,0-14,4.701-14,10.5c0,1.982,0.741,3.833,2.016,5.414L2,25.667l5.613-1.441c2.339,1.317,5.237,2.107,8.387,2.107c7.732,0,14-4.701,14-10.5C30,10.034,23.732,5.333,16,5.333z" transform="translate(5, -33)"></path><path  idx="0" transform="scale(.8) translate(9.5, -37)" d="M24.778,21.419 19.276,15.917 24.777,10.415 21.949,7.585 16.447,13.087 10.945,7.585 8.117,10.415 13.618,15.917 8.116,21.419 10.946,24.248 16.447,18.746 21.948,24.248z"><title>Remove vertex.</title></path></g><g  transform="translate(970, 197)" id="v-518"><circle  idx="1" r="10"></circle><path  idx="1" d="M16,5.333c-7.732,0-14,4.701-14,10.5c0,1.982,0.741,3.833,2.016,5.414L2,25.667l5.613-1.441c2.339,1.317,5.237,2.107,8.387,2.107c7.732,0,14-4.701,14-10.5C30,10.034,23.732,5.333,16,5.333z" transform="translate(5, -33)"></path><path  idx="1" transform="scale(.8) translate(9.5, -37)" d="M24.778,21.419 19.276,15.917 24.777,10.415 21.949,7.585 16.447,13.087 10.945,7.585 8.117,10.415 13.618,15.917 8.116,21.419 10.946,24.248 16.447,18.746 21.948,24.248z"><title>Remove vertex.</title></path></g></g><g  id="v-485" display="none"><g  id="v-470"><path  end="source" d="M 26 0 L 0 13 L 26 26 z"></path></g><g  id="v-471"><path  end="target" d="M 26 0 L 0 13 L 26 26 z"></path></g></g><g  id="v-484" display="none"><g  id="v-467" transform="translate(1702.3748211904344, 323.8570160168599) "><g  event="remove"><circle r="11"></circle><path transform="scale(.8) translate(-16, -16)" d="M24.778,21.419 19.276,15.917 24.777,10.415 21.949,7.585 16.447,13.087 10.945,7.585 8.117,10.415 13.618,15.917 8.116,21.419 10.946,24.248 16.447,18.746 21.948,24.248z"></path><title>Remove link.</title></g><g  event="link:options"><circle r="11" transform="translate(25)"></circle><path fill="white" transform="scale(.55) translate(29, -16)" d="M31.229,17.736c0.064-0.571,0.104-1.148,0.104-1.736s-0.04-1.166-0.104-1.737l-4.377-1.557c-0.218-0.716-0.504-1.401-0.851-2.05l1.993-4.192c-0.725-0.91-1.549-1.734-2.458-2.459l-4.193,1.994c-0.647-0.347-1.334-0.632-2.049-0.849l-1.558-4.378C17.165,0.708,16.588,0.667,16,0.667s-1.166,0.041-1.737,0.105L12.707,5.15c-0.716,0.217-1.401,0.502-2.05,0.849L6.464,4.005C5.554,4.73,4.73,5.554,4.005,6.464l1.994,4.192c-0.347,0.648-0.632,1.334-0.849,2.05l-4.378,1.557C0.708,14.834,0.667,15.412,0.667,16s0.041,1.165,0.105,1.736l4.378,1.558c0.217,0.715,0.502,1.401,0.849,2.049l-1.994,4.193c0.725,0.909,1.549,1.733,2.459,2.458l4.192-1.993c0.648,0.347,1.334,0.633,2.05,0.851l1.557,4.377c0.571,0.064,1.148,0.104,1.737,0.104c0.588,0,1.165-0.04,1.736-0.104l1.558-4.377c0.715-0.218,1.399-0.504,2.049-0.851l4.193,1.993c0.909-0.725,1.733-1.549,2.458-2.458l-1.993-4.193c0.347-0.647,0.633-1.334,0.851-2.049L31.229,17.736zM16,20.871c-2.69,0-4.872-2.182-4.872-4.871c0-2.69,2.182-4.872,4.872-4.872c2.689,0,4.871,2.182,4.871,4.872C20.871,18.689,18.689,20.871,16,20.871z"></path><title>Link options.</title></g></g></g></g><!--z-index:41--><g   id="j_38" ><path  stroke="#aaaaaa" d="M 970 587 L 670 707" id="v-501" stroke-width="2" stroke-dasharray="30 30" fill="none" style="opacity: 1;"></path><path  fill="black" stroke="black" d="M 0 0 0 0" transform="matrix(-0.928476707906966,0.37139063379983406,-0.37139063379983406,-0.928476707906966,970.0000610351562,587)"></path><path  fill="#aaaaaa" stroke="#aaaaaa" d="M 20 0 L 0 10 L 20 20 z" id="v-503" transform="matrix(0.9284768068142416,-0.3713903865315167,0.3713903865315167,0.9284768068142416,666.2861181056053,697.7152075745163)" style="opacity: 1;"></path><path  d="M 970 587 L 670 707" id="v-502" fill="none" style="cursor: auto; pointer-events: visiblepainted;"></path><g ><g id="v-492"  label-idx="0" cursor="move" transform="matrix(1,0,0,1,820,647)" style="cursor: default; opacity: 1;"><rect joint-selector="rect" id="v-496" fill="#111111" rx="3" ry="3" pointer-events="none" width="199.2584991455078" height="34.34210395812988" transform="matrix(1,0,0,1,-100.6,-17.2)"></rect><text joint-selector="text" id="v-495" font-size="24px" xml:space="preserve" y="0.8em" fill="#aaaaaa" text-anchor="middle" pointer-events="none" font-family="Open Sans" font-weight="normal" transform="matrix(1,0,0,1,0,-9.7)"><tspan dy="0" >Valida API-KEY na</tspan></text></g><g id="v-493"  label-idx="1" cursor="move" transform="matrix(1,0,0,1,820,673.4000244140625)" style="cursor: default; opacity: 1;"><rect joint-selector="rect" id="v-498" fill="#111111" rx="3" ry="3" pointer-events="none" width="110.02692413330078" height="22.89473819732666" transform="matrix(1,0,0,1,-54,-11.5)"></rect><text joint-selector="text" id="v-497" font-size="17px" xml:space="preserve" y="0.8em" fill="#aaaaaa" text-anchor="middle" pointer-events="none" font-family="Open Sans" font-weight="normal" transform="matrix(1,0,0,1,0,-6)"><tspan dy="0" >[HTTPS/JSON]</tspan></text></g><g id="v-494"  label-idx="2" cursor="move" transform="matrix(1,0,0,1,810,681.7999877929688)" style="cursor: default; opacity: 1;"><rect joint-selector="rect" id="v-500" fill="#ffffff" rx="3" ry="3"  width="0" height="0" transform="matrix(1,0,0,1,0,0)" display="none"></rect><text joint-selector="text" id="v-499" fill="#000000" font-size="14" text-anchor="middle" pointer-events="none"></text></g></g><g  display="none" style="display: none;"></g><g  id="v-505" display="none"><g  id="v-490"><path  end="source" d="M 26 0 L 0 13 L 26 26 z"></path></g><g  id="v-491"><path  end="target" d="M 26 0 L 0 13 L 26 26 z"></path></g></g><g  id="v-504" display="none"><g  id="v-489" transform="translate(932.8609323645896, 601.8556270541642) "><g  event="remove"><circle r="11"></circle><path transform="scale(.8) translate(-16, -16)" d="M24.778,21.419 19.276,15.917 24.777,10.415 21.949,7.585 16.447,13.087 10.945,7.585 8.117,10.415 13.618,15.917 8.116,21.419 10.946,24.248 16.447,18.746 21.948,24.248z"></path><title>Remove link.</title></g><g  event="link:options"><circle r="11" transform="translate(25)"></circle><path fill="white" transform="scale(.55) translate(29, -16)" d="M31.229,17.736c0.064-0.571,0.104-1.148,0.104-1.736s-0.04-1.166-0.104-1.737l-4.377-1.557c-0.218-0.716-0.504-1.401-0.851-2.05l1.993-4.192c-0.725-0.91-1.549-1.734-2.458-2.459l-4.193,1.994c-0.647-0.347-1.334-0.632-2.049-0.849l-1.558-4.378C17.165,0.708,16.588,0.667,16,0.667s-1.166,0.041-1.737,0.105L12.707,5.15c-0.716,0.217-1.401,0.502-2.05,0.849L6.464,4.005C5.554,4.73,4.73,5.554,4.005,6.464l1.994,4.192c-0.347,0.648-0.632,1.334-0.849,2.05l-4.378,1.557C0.708,14.834,0.667,15.412,0.667,16s0.041,1.165,0.105,1.736l4.378,1.558c0.217,0.715,0.502,1.401,0.849,2.049l-1.994,4.193c0.725,0.909,1.549,1.733,2.459,2.458l4.192-1.993c0.648,0.347,1.334,0.633,2.05,0.851l1.557,4.377c0.571,0.064,1.148,0.104,1.737,0.104c0.588,0,1.165-0.04,1.736-0.104l1.558-4.377c0.715-0.218,1.399-0.504,2.049-0.851l4.193,1.993c0.909-0.725,1.733-1.549,2.458-2.458l-1.993-4.193c0.347-0.647,0.633-1.334,0.851-2.049L31.229,17.736zM16,20.871c-2.69,0-4.872-2.182-4.872-4.871c0-2.69,2.182-4.872,4.872-4.872c2.689,0,4.871,2.182,4.871,4.872C20.871,18.689,18.689,20.871,16,20.871z"></path><title>Link options.</title></g></g></g></g><!--z-index:42--></g><g ></g><g ></g><g ></g></g></svg>