<svg xmlns="http://www.w3.org/2000/svg" xmlns:xlink="http://www.w3.org/1999/xlink" version="1.1" viewBox="0 0 3140 1320" style="background: #111111"><defs><style>@import url(https://fonts.googleapis.com/css?family=Open+Sans:400,700);</style></defs><defs joint-selector="defs"></defs><g joint-selector="layers"  transform="matrix(1,0,0,1,0,0)"><g ></g><g ><!--z-index:1--><!--z-index:2--><!--z-index:3--><!--z-index:4--><!--z-index:5--><!--z-index:6--><!--z-index:7--><!--z-index:8--><!--z-index:9--><!--z-index:10--><!--z-index:11--><!--z-index:12--><!--z-index:13--><!--z-index:14--><!--z-index:15--><!--z-index:16--><!--z-index:17--><g   id="j_17"  transform="translate(20,1283.6)"><g id="v-166"><text  id="v-167" font-size="22px" xml:space="preserve" y="0.8em" font-weight="normal" text-anchor="start" fill="#777777" pointer-events="none" display="block" font-family="Open Sans"><tspan dy="0" >terça-feira, 11 de fevereiro de 2025 às 10:59 Horário Padrão de Brasília</tspan></text></g></g><!--z-index:18--><g   id="j_16"  transform="translate(20,1240.3999999999999)"><g id="v-164"><text  id="v-165" font-size="36px" xml:space="preserve" y="0.8em" font-weight="normal" text-anchor="start" fill="#bbbbbb" pointer-events="none" display="block" font-family="Open Sans"><tspan dy="0" >[Component] Desafio Carrefour - Gateway</tspan></text></g></g><!--z-index:19--><g   id="j_18"  transform="translate(2282,785)" style=""><g  id="v-168" style="opacity: 1;"><path  d="M 0,30 a 225,30 0,0,0 450 0 a 225,30 0,0,0 -450 0 l 0,240 a 225,30 0,0,0 450 0 l 0,-240" id="v-169" stroke="#4053d6" stroke-width="2" pointer-events="visiblePainted" fill="#438dd5" style="fill: rgb(67, 141, 213); stroke: rgb(64, 83, 214);"></path><rect  id="v-170" stroke-width="0" pointer-events="visiblePainted" fill="none" stroke="none" width="450" height="270" x="0" y="30"></rect><text  id="v-171" font-size="34" xml:space="preserve" y="0.8em" font-weight="bold" text-anchor="middle" pointer-events="visible" font-family="Open Sans" fill="#4053d6" transform="matrix(1,0,0,1,225,87.5)" style="fill: rgb(64, 83, 214);"><tspan dy="0" >Documentos</tspan></text><text  id="v-172" font-size="17" xml:space="preserve" y="0.8em" text-anchor="middle" font-family="Open Sans" fill="#4053d6" transform="matrix(1,0,0,1,225,128.3)" style="fill: rgb(64, 83, 214);"><tspan dy="0" >[Container: DynamoDB]</tspan></text><text  id="v-173" font-size="24" xml:space="preserve" y="0.8em" text-anchor="middle" font-family="Open Sans" fill="#4053d6" transform="matrix(1,0,0,1,225,158.7)" style="fill: rgb(64, 83, 214);"><tspan dy="0" >Registra Documentos</tspan></text><g  id="v-174" font-weight="normal" text-anchor="middle" color="#4053d6" transform="matrix(1,0,0,1,222.5,268)" style="fill: rgb(64, 83, 214);" display="none"><g ></g><g ></g><g ></g><g ></g></g><image  id="v-175" xlink:href="https://static.structurizr.com/themes/amazon-web-services-2023.01.31/Arch_Amazon-DynamoDB_48.png" width="60" height="60" opacity="1" transform="matrix(1,0,0,1,195,197.5)"></image></g></g><!--z-index:20--><g   id="j_19"  transform="translate(1345,785)" style=""><g  id="v-179" style="opacity: 1;"><rect  id="v-180" rx="20" ry="20" stroke="#3c7fc0" stroke-width="2" pointer-events="visiblePainted" fill="#438dd5" width="450" height="300" style="fill: rgb(67, 141, 213); stroke: rgb(60, 127, 192);"></rect><text  id="v-181" font-size="34" xml:space="preserve" y="0.8em" font-weight="bold" text-anchor="middle" pointer-events="visible" font-family="Open Sans" fill="#ffffff" transform="matrix(1,0,0,1,225,88.1)" style="fill: rgb(255, 255, 255);"><tspan dy="0" >Amazon SNS</tspan></text><text  id="v-182" font-size="17" xml:space="preserve" y="0.8em" text-anchor="middle" font-family="Open Sans" fill="#ffffff" transform="matrix(1,0,0,1,225,128.9)" style="fill: rgb(255, 255, 255);"><tspan dy="0" >[Container: SNS]</tspan></text><text  id="v-183" font-size="24" xml:space="preserve" y="0.8em" text-anchor="middle" font-family="Open Sans" fill="#ffffff" transform="matrix(1,0,0,1,225,159.3)" style="fill: rgb(255, 255, 255);"><tspan dy="0" >Responsável por disponibilizar as</tspan><tspan dy="1.2em" x="0" >mensagens em tópicos</tspan></text><g  id="v-184" color="#ffffff" transform="matrix(1,0,0,1,222.5,268)" style="fill: rgb(255, 255, 255);" display="none"><g ></g><g ></g><g ></g><g ></g></g><image  id="v-185"></image></g></g><!--z-index:21--><g   id="j_21"  transform="translate(200,165)" style=""><g id="v-199"><rect  id="v-200" width="2740" height="411" rx="0" ry="0" fill="#111111" stroke="#d72b6c" stroke-width="1" stroke-dasharray="20,20" pointer-events="none"></rect><text  id="v-201" font-size="24px" xml:space="preserve" y="372" font-weight="normal" fill="#d72b6c" text-anchor="start" pointer-events="visible" font-family="Open Sans" transform="matrix(1,0,0,1,73,0)"><tspan dy="0" >Gateway</tspan></text><text  id="v-202" font-size="17px" xml:space="preserve" y="396" font-weight="normal" fill="#d72b6c" text-anchor="start" pointer-events="visible" font-family="Open Sans" transform="matrix(1,0,0,1,73,0)"><tspan dy="0" >[Container]</tspan></text><image  id="v-203" pointer-events="visible" xlink:href="https://static.structurizr.com/themes/amazon-web-services-2023.01.31/Arch_Amazon-API-Gateway_48.png" width="48" height="48" opacity="1" x="15" y="353"></image></g></g><!--z-index:22--><g   id="j_20"  transform="translate(1720,185)" style=""><g  id="v-192" style="opacity: 1;"><rect  id="v-193" rx="20" ry="20" stroke="#d45b07" stroke-width="2" pointer-events="visiblePainted" fill="#85bbf0" width="450" height="300" style="fill: rgb(133, 187, 240); stroke: rgb(212, 91, 7);"></rect><text  id="v-194" font-size="34" xml:space="preserve" y="0.8em" font-weight="bold" text-anchor="middle" pointer-events="visible" font-family="Open Sans" fill="#d45b07" transform="matrix(1,0,0,1,225,30.2)" style="fill: rgb(212, 91, 7);"><tspan dy="0" >MicroServiço</tspan><tspan dy="1.2em" x="0" >FluxoCaixa.Autenticacao</tspan></text><text  id="v-195" font-size="17" xml:space="preserve" y="0.8em" text-anchor="middle" font-family="Open Sans" fill="#d45b07" transform="matrix(1,0,0,1,225,111.8)" style="fill: rgb(212, 91, 7);"><tspan dy="0" >[Component: C#]</tspan></text><text  id="v-196" font-size="24" xml:space="preserve" y="0.8em" text-anchor="middle" font-family="Open Sans" fill="#d45b07" transform="matrix(1,0,0,1,225,142.2)" style="fill: rgb(212, 91, 7);"><tspan dy="0" >Gerencia Usuários, Senhas,</tspan><tspan dy="1.2em" x="0" >API-KEYS e processa a Autenticação</tspan></text><g  id="v-197" color="#d45b07" transform="matrix(1,0,0,1,222.5,268)" style="fill: rgb(212, 91, 7);" display="none"><g ></g><g ></g><g ></g><g ></g></g><image  id="v-198" xlink:href="https://static.structurizr.com/themes/amazon-web-services-2023.01.31/Res_AWS-Lambda_Lambda-Function_48_Light.png" width="60" height="60" opacity="1" transform="matrix(1,0,0,1,195,209.8)"></image></g></g><!--z-index:23--><g   id="j_22"  transform="translate(970,185)" style=""><g  id="v-210" style="opacity: 1;"><rect  id="v-211" rx="20" ry="20" stroke="#d45b07" stroke-width="2" pointer-events="visiblePainted" fill="#85bbf0" width="450" height="300" style="fill: rgb(133, 187, 240); stroke: rgb(212, 91, 7);"></rect><text  id="v-212" font-size="34" xml:space="preserve" y="0.8em" font-weight="bold" text-anchor="middle" pointer-events="visible" font-family="Open Sans" fill="#d45b07" transform="matrix(1,0,0,1,225,44.6)" style="fill: rgb(212, 91, 7);"><tspan dy="0" >MicroServico</tspan><tspan dy="1.2em" x="0" >FluxoCaixa.Lancamentos</tspan></text><text  id="v-213" font-size="17" xml:space="preserve" y="0.8em" text-anchor="middle" font-family="Open Sans" fill="#d45b07" transform="matrix(1,0,0,1,225,126.2)" style="fill: rgb(212, 91, 7);"><tspan dy="0" >[Component: C#]</tspan></text><text  id="v-214" font-size="24" xml:space="preserve" y="0.8em" text-anchor="middle" font-family="Open Sans" fill="#d45b07" transform="matrix(1,0,0,1,225,156.6)" style="fill: rgb(212, 91, 7);"><tspan dy="0" >Registra e exibe lançamentos</tspan></text><g  id="v-215" color="#d45b07" transform="matrix(1,0,0,1,222.5,268)" style="fill: rgb(212, 91, 7);" display="none"><g ></g><g ></g><g ></g><g ></g></g><image  id="v-216" xlink:href="https://static.structurizr.com/themes/amazon-web-services-2023.01.31/Res_AWS-Lambda_Lambda-Function_48_Light.png" width="60" height="60" opacity="1" transform="matrix(1,0,0,1,195,195.4)"></image></g></g><!--z-index:24--><g   id="j_23"  transform="translate(220,185)" style=""><g  id="v-223" style="opacity: 1;"><rect  id="v-224" rx="20" ry="20" stroke="#d45b07" stroke-width="2" pointer-events="visiblePainted" fill="#85bbf0" width="450" height="300" style="fill: rgb(133, 187, 240); stroke: rgb(212, 91, 7);"></rect><text  id="v-225" font-size="34" xml:space="preserve" y="0.8em" font-weight="bold" text-anchor="middle" pointer-events="visible" font-family="Open Sans" fill="#d45b07" transform="matrix(1,0,0,1,225,30.2)" style="fill: rgb(212, 91, 7);"><tspan dy="0" >MicroServico FluxoCaixa.</tspan><tspan dy="1.2em" x="0" >ConsolidadoDiario</tspan></text><text  id="v-226" font-size="17" xml:space="preserve" y="0.8em" text-anchor="middle" font-family="Open Sans" fill="#d45b07" transform="matrix(1,0,0,1,225,111.8)" style="fill: rgb(212, 91, 7);"><tspan dy="0" >[Component: C#]</tspan></text><text  id="v-227" font-size="24" xml:space="preserve" y="0.8em" text-anchor="middle" font-family="Open Sans" fill="#d45b07" transform="matrix(1,0,0,1,225,142.2)" style="fill: rgb(212, 91, 7);"><tspan dy="0" >Processa e exibe os lançamentos</tspan><tspan dy="1.2em" x="0" >consolidados</tspan></text><g  id="v-228" color="#d45b07" transform="matrix(1,0,0,1,222.5,268)" style="fill: rgb(212, 91, 7);" display="none"><g ></g><g ></g><g ></g><g ></g></g><image  id="v-229" xlink:href="https://static.structurizr.com/themes/amazon-web-services-2023.01.31/Res_AWS-Lambda_Lambda-Function_48_Light.png" width="60" height="60" opacity="1" transform="matrix(1,0,0,1,195,209.8)"></image></g></g><!--z-index:25--><g   id="j_24"  transform="translate(2470,185)" style=""><g  id="v-236" style="opacity: 1;"><rect  id="v-237" rx="20" ry="20" stroke="#d45b07" stroke-width="2" pointer-events="visiblePainted" fill="#85bbf0" width="450" height="300" style="fill: rgb(133, 187, 240); stroke: rgb(212, 91, 7);"></rect><text  id="v-238" font-size="34" xml:space="preserve" y="0.8em" font-weight="bold" text-anchor="middle" pointer-events="visible" font-family="Open Sans" fill="#d45b07" transform="matrix(1,0,0,1,225,30.2)" style="fill: rgb(212, 91, 7);"><tspan dy="0" >MicroServico</tspan><tspan dy="1.2em" x="0" >FluxoCaixa.Integracoes</tspan></text><text  id="v-239" font-size="17" xml:space="preserve" y="0.8em" text-anchor="middle" font-family="Open Sans" fill="#d45b07" transform="matrix(1,0,0,1,225,111.8)" style="fill: rgb(212, 91, 7);"><tspan dy="0" >[Component: C#]</tspan></text><text  id="v-240" font-size="24" xml:space="preserve" y="0.8em" text-anchor="middle" font-family="Open Sans" fill="#d45b07" transform="matrix(1,0,0,1,225,142.2)" style="fill: rgb(212, 91, 7);"><tspan dy="0" >Processa e persiste os lançamentos</tspan><tspan dy="1.2em" x="0" >no SGBD</tspan></text><g  id="v-241" color="#d45b07" transform="matrix(1,0,0,1,222.5,268)" style="fill: rgb(212, 91, 7);" display="none"><g ></g><g ></g><g ></g><g ></g></g><image  id="v-242" xlink:href="https://static.structurizr.com/themes/amazon-web-services-2023.01.31/Res_AWS-Lambda_Lambda-Function_48_Light.png" width="60" height="60" opacity="1" transform="matrix(1,0,0,1,195,209.8)"></image></g></g><!--z-index:26--><g   id="j_25" ><path  stroke="#aaaaaa" d="M 2086 485 L 2367 785" id="v-258" stroke-width="2" stroke-dasharray="30 30" fill="none" style="opacity: 1;"></path><path  fill="black" stroke="black" d="M 0 0 0 0" transform="matrix(0.6836173273456162,0.7298406331198862,-0.7298406331198862,0.6836173273456162,2085.5,485)"></path><path  fill="#aaaaaa" stroke="#aaaaaa" d="M 20 0 L 0 10 L 20 20 z" id="v-260" transform="matrix(-0.6836173759376939,-0.729840587605308,0.729840587605308,-0.6836173759376939,2359.201586242699,791.8361787565239)" style="opacity: 1;"></path><path  d="M 2086 485 L 2367 785" id="v-259" fill="none" style="cursor: auto; pointer-events: visiblepainted;"></path><g ><g id="v-249"  label-idx="0" cursor="move" transform="matrix(1,0,0,1,2226.5,635)" style="cursor: default; opacity: 1;"><rect joint-selector="rect" id="v-253" fill="#111111" rx="3" ry="3" pointer-events="none" width="144.00303649902344" height="60.28121376037598" transform="matrix(1,0,0,1,-71.4,-30.2)"></rect><text joint-selector="text" id="v-252" font-size="24px" xml:space="preserve" y="0.8em" fill="#aaaaaa" text-anchor="middle" pointer-events="none" font-family="Open Sans" font-weight="normal" transform="matrix(1,0,0,1,0,-24.2)"><tspan dy="0" >Armazena</tspan><tspan dy="1.2em" x="0" >Documentos</tspan></text></g><g id="v-250"  label-idx="1" cursor="move" transform="matrix(1,0,0,1,2226.5,675.7999877929688)" style="cursor: default; opacity: 1;"><rect joint-selector="rect" id="v-255" fill="#111111" rx="3" ry="3" pointer-events="none" width="172.62570190429688" height="23.08622169494629" transform="matrix(1,0,0,1,-86,-11.6)"></rect><text joint-selector="text" id="v-254" font-size="17px" xml:space="preserve" y="0.8em" fill="#aaaaaa" text-anchor="middle" pointer-events="none" font-family="Open Sans" font-weight="normal" transform="matrix(1,0,0,1,0,-6.3)"><tspan dy="0" >[DynamoDB Protocol]</tspan></text></g><g id="v-251"  label-idx="2" cursor="move" transform="matrix(1,0,0,1,2216.5,684.2000122070312)" style="cursor: default; opacity: 1;"><rect joint-selector="rect" id="v-257" fill="#ffffff" rx="3" ry="3"  width="0" height="0" transform="matrix(1,0,0,1,0,0)" display="none"></rect><text joint-selector="text" id="v-256" fill="#000000" font-size="14" text-anchor="middle" pointer-events="none"></text></g></g><g  display="none" style="display: none;"></g><g  id="v-262" display="none"><g  id="v-247"><path  end="source" d="M 26 0 L 0 13 L 26 26 z"></path></g><g  id="v-248"><path  end="target" d="M 26 0 L 0 13 L 26 26 z"></path></g></g><g  id="v-261" display="none"><g  id="v-246" transform="translate(2113.3446944931775, 514.1936240140684) "><g  event="remove"><circle r="11"></circle><path transform="scale(.8) translate(-16, -16)" d="M24.778,21.419 19.276,15.917 24.777,10.415 21.949,7.585 16.447,13.087 10.945,7.585 8.117,10.415 13.618,15.917 8.116,21.419 10.946,24.248 16.447,18.746 21.948,24.248z"></path><title>Remove link.</title></g><g  event="link:options"><circle r="11" transform="translate(25)"></circle><path fill="white" transform="scale(.55) translate(29, -16)" d="M31.229,17.736c0.064-0.571,0.104-1.148,0.104-1.736s-0.04-1.166-0.104-1.737l-4.377-1.557c-0.218-0.716-0.504-1.401-0.851-2.05l1.993-4.192c-0.725-0.91-1.549-1.734-2.458-2.459l-4.193,1.994c-0.647-0.347-1.334-0.632-2.049-0.849l-1.558-4.378C17.165,0.708,16.588,0.667,16,0.667s-1.166,0.041-1.737,0.105L12.707,5.15c-0.716,0.217-1.401,0.502-2.05,0.849L6.464,4.005C5.554,4.73,4.73,5.554,4.005,6.464l1.994,4.192c-0.347,0.648-0.632,1.334-0.849,2.05l-4.378,1.557C0.708,14.834,0.667,15.412,0.667,16s0.041,1.165,0.105,1.736l4.378,1.558c0.217,0.715,0.502,1.401,0.849,2.049l-1.994,4.193c0.725,0.909,1.549,1.733,2.459,2.458l4.192-1.993c0.648,0.347,1.334,0.633,2.05,0.851l1.557,4.377c0.571,0.064,1.148,0.104,1.737,0.104c0.588,0,1.165-0.04,1.736-0.104l1.558-4.377c0.715-0.218,1.399-0.504,2.049-0.851l4.193,1.993c0.909-0.725,1.733-1.549,2.458-2.458l-1.993-4.193c0.347-0.647,0.633-1.334,0.851-2.049L31.229,17.736zM16,20.871c-2.69,0-4.872-2.182-4.872-4.871c0-2.69,2.182-4.872,4.872-4.872c2.689,0,4.871,2.182,4.871,4.872C20.871,18.689,18.689,20.871,16,20.871z"></path><title>Link options.</title></g></g></g></g><!--z-index:27--><g   id="j_26" ><path  stroke="#aaaaaa" d="M 1289 485 L 1476 785" id="v-275" stroke-width="2" stroke-dasharray="30 30" fill="none" style="opacity: 1;"></path><path  fill="black" stroke="black" d="M 0 0 0 0" transform="matrix(0.5299990430011602,0.8479982396313415,-0.8479982396313415,0.5299990430011602,1288.75,485)"></path><path  fill="#aaaaaa" stroke="#aaaaaa" d="M 20 0 L 0 10 L 20 20 z" id="v-277" transform="matrix(-0.5299989865422613,-0.8479982749181602,0.8479982749181602,-0.5299989865422613,1467.7700803584285,790.3000531810105)" style="opacity: 1;"></path><path  d="M 1289 485 L 1476 785" id="v-276" fill="none" style="cursor: auto; pointer-events: visiblepainted;"></path><g ><g id="v-266"  label-idx="0" cursor="move" transform="matrix(1,0,0,1,1382.5,635)" style="cursor: default; opacity: 1;"><rect joint-selector="rect" id="v-270" fill="#111111" rx="3" ry="3" pointer-events="none" width="140.1897735595703" height="31.481212615966797" transform="matrix(1,0,0,1,-70.1,-15.8)"></rect><text joint-selector="text" id="v-269" font-size="24px" xml:space="preserve" y="0.8em" fill="#aaaaaa" text-anchor="middle" pointer-events="none" font-family="Open Sans" font-weight="normal" transform="matrix(1,0,0,1,0,-9.8)"><tspan dy="0" >Consome de</tspan></text></g><g id="v-267"  label-idx="1" cursor="move" transform="matrix(1,0,0,1,1382.5,661.4000244140625)" style="cursor: default; opacity: 1;"><rect joint-selector="rect" id="v-272" fill="#111111" rx="3" ry="3" pointer-events="none" width="108.46952819824219" height="23.08622169494629" transform="matrix(1,0,0,1,-53.9,-11.6)"></rect><text joint-selector="text" id="v-271" font-size="17px" xml:space="preserve" y="0.8em" fill="#aaaaaa" text-anchor="middle" pointer-events="none" font-family="Open Sans" font-weight="normal" transform="matrix(1,0,0,1,0,-6.3)"><tspan dy="0" >[SNS Topicos]</tspan></text></g><g id="v-268"  label-idx="2" cursor="move" transform="matrix(1,0,0,1,1372.5,669.7999877929688)" style="cursor: default; opacity: 1;"><rect joint-selector="rect" id="v-274" fill="#ffffff" rx="3" ry="3"  width="0" height="0" transform="matrix(1,0,0,1,0,0)" display="none"></rect><text joint-selector="text" id="v-273" fill="#000000" font-size="14" text-anchor="middle" pointer-events="none"></text></g></g><g  display="none" style="display: none;"></g><g  id="v-279" display="none"><g  id="v-264"><path  end="source" d="M 26 0 L 0 13 L 26 26 z"></path></g><g  id="v-265"><path  end="target" d="M 26 0 L 0 13 L 26 26 z"></path></g></g><g  id="v-278" display="none"><g  id="v-263" transform="translate(1310.1592588038857, 518.9453349794958) "><g  event="remove"><circle r="11"></circle><path transform="scale(.8) translate(-16, -16)" d="M24.778,21.419 19.276,15.917 24.777,10.415 21.949,7.585 16.447,13.087 10.945,7.585 8.117,10.415 13.618,15.917 8.116,21.419 10.946,24.248 16.447,18.746 21.948,24.248z"></path><title>Remove link.</title></g><g  event="link:options"><circle r="11" transform="translate(25)"></circle><path fill="white" transform="scale(.55) translate(29, -16)" d="M31.229,17.736c0.064-0.571,0.104-1.148,0.104-1.736s-0.04-1.166-0.104-1.737l-4.377-1.557c-0.218-0.716-0.504-1.401-0.851-2.05l1.993-4.192c-0.725-0.91-1.549-1.734-2.458-2.459l-4.193,1.994c-0.647-0.347-1.334-0.632-2.049-0.849l-1.558-4.378C17.165,0.708,16.588,0.667,16,0.667s-1.166,0.041-1.737,0.105L12.707,5.15c-0.716,0.217-1.401,0.502-2.05,0.849L6.464,4.005C5.554,4.73,4.73,5.554,4.005,6.464l1.994,4.192c-0.347,0.648-0.632,1.334-0.849,2.05l-4.378,1.557C0.708,14.834,0.667,15.412,0.667,16s0.041,1.165,0.105,1.736l4.378,1.558c0.217,0.715,0.502,1.401,0.849,2.049l-1.994,4.193c0.725,0.909,1.549,1.733,2.459,2.458l4.192-1.993c0.648,0.347,1.334,0.633,2.05,0.851l1.557,4.377c0.571,0.064,1.148,0.104,1.737,0.104c0.588,0,1.165-0.04,1.736-0.104l1.558-4.377c0.715-0.218,1.399-0.504,2.049-0.851l4.193,1.993c0.909-0.725,1.733-1.549,2.458-2.458l-1.993-4.193c0.347-0.647,0.633-1.334,0.851-2.049L31.229,17.736zM16,20.871c-2.69,0-4.872-2.182-4.872-4.871c0-2.69,2.182-4.872,4.872-4.872c2.689,0,4.871,2.182,4.871,4.872C20.871,18.689,18.689,20.871,16,20.871z"></path><title>Link options.</title></g></g></g></g><!--z-index:28--><g   id="j_27" ><path  stroke="#aaaaaa" d="M 666 485 L 812 583 C 817.3333333333333 587 823 590.3333333333333 829 593 L 1345 831" id="v-293" stroke-width="2" stroke-dasharray="30 30" fill="none" style="opacity: 1;"></path><path  fill="black" stroke="black" d="M 0 0 0 0" transform="matrix(0.8279517503693528,0.5607993393900573,-0.5607993393900573,0.8279517503693528,666.4566650390625,485)"></path><path  fill="#aaaaaa" stroke="#aaaaaa" d="M 20 0 L 0 10 L 20 20 z" id="v-295" transform="matrix(-0.9080303070619146,-0.41890447772379436,0.41890447772379436,-0.9080303070619146,1340.8110580980688,840.2803341759821)" style="opacity: 1;"></path><path  d="M 666 485 L 812 583 C 817.3333333333333 587 823 590.3333333333333 829 593 L 1345 831" id="v-294" fill="none" style="cursor: auto; pointer-events: visiblepainted;"></path><g ><g id="v-284"  label-idx="0" cursor="move" transform="matrix(1,0,0,1,998.1900024414062,671.0372314453125)" style="cursor: default; opacity: 1;"><rect joint-selector="rect" id="v-288" fill="#111111" rx="3" ry="3" pointer-events="none" width="140.1897735595703" height="31.481212615966797" transform="matrix(1,0,0,1,-70.1,-15.8)"></rect><text joint-selector="text" id="v-287" font-size="24px" xml:space="preserve" y="0.8em" fill="#aaaaaa" text-anchor="middle" pointer-events="none" font-family="Open Sans" font-weight="normal" transform="matrix(1,0,0,1,0,-9.8)"><tspan dy="0" >Consome de</tspan></text></g><g id="v-285"  label-idx="1" cursor="move" transform="matrix(1,0,0,1,998.1900024414062,697.437255859375)" style="cursor: default; opacity: 1;"><rect joint-selector="rect" id="v-290" fill="#111111" rx="3" ry="3" pointer-events="none" width="108.46952819824219" height="23.08622169494629" transform="matrix(1,0,0,1,-53.9,-11.6)"></rect><text joint-selector="text" id="v-289" font-size="17px" xml:space="preserve" y="0.8em" fill="#aaaaaa" text-anchor="middle" pointer-events="none" font-family="Open Sans" font-weight="normal" transform="matrix(1,0,0,1,0,-6.3)"><tspan dy="0" >[SNS Topicos]</tspan></text></g><g id="v-286"  label-idx="2" cursor="move" transform="matrix(1,0,0,1,988.1900024414062,705.8372802734375)" style="cursor: default; opacity: 1;"><rect joint-selector="rect" id="v-292" fill="#ffffff" rx="3" ry="3"  width="0" height="0" transform="matrix(1,0,0,1,0,0)" display="none"></rect><text joint-selector="text" id="v-291" fill="#000000" font-size="14" text-anchor="middle" pointer-events="none"></text></g></g><g  display="none" style="display: none;"><g  transform="translate(820, 589)" id="v-359"><circle  idx="0" r="10"></circle><path  idx="0" d="M16,5.333c-7.732,0-14,4.701-14,10.5c0,1.982,0.741,3.833,2.016,5.414L2,25.667l5.613-1.441c2.339,1.317,5.237,2.107,8.387,2.107c7.732,0,14-4.701,14-10.5C30,10.034,23.732,5.333,16,5.333z" transform="translate(5, -33)"></path><path  idx="0" transform="scale(.8) translate(9.5, -37)" d="M24.778,21.419 19.276,15.917 24.777,10.415 21.949,7.585 16.447,13.087 10.945,7.585 8.117,10.415 13.618,15.917 8.116,21.419 10.946,24.248 16.447,18.746 21.948,24.248z"><title>Remove vertex.</title></path></g></g><g  id="v-297" display="none"><g  id="v-282"><path  end="source" d="M 26 0 L 0 13 L 26 26 z"></path></g><g  id="v-283"><path  end="target" d="M 26 0 L 0 13 L 26 26 z"></path></g></g><g  id="v-296" display="none"><g  id="v-280" transform="translate(699.2118528071271, 507.2928875006744) "><g  event="remove"><circle r="11"></circle><path transform="scale(.8) translate(-16, -16)" d="M24.778,21.419 19.276,15.917 24.777,10.415 21.949,7.585 16.447,13.087 10.945,7.585 8.117,10.415 13.618,15.917 8.116,21.419 10.946,24.248 16.447,18.746 21.948,24.248z"></path><title>Remove link.</title></g><g  event="link:options"><circle r="11" transform="translate(25)"></circle><path fill="white" transform="scale(.55) translate(29, -16)" d="M31.229,17.736c0.064-0.571,0.104-1.148,0.104-1.736s-0.04-1.166-0.104-1.737l-4.377-1.557c-0.218-0.716-0.504-1.401-0.851-2.05l1.993-4.192c-0.725-0.91-1.549-1.734-2.458-2.459l-4.193,1.994c-0.647-0.347-1.334-0.632-2.049-0.849l-1.558-4.378C17.165,0.708,16.588,0.667,16,0.667s-1.166,0.041-1.737,0.105L12.707,5.15c-0.716,0.217-1.401,0.502-2.05,0.849L6.464,4.005C5.554,4.73,4.73,5.554,4.005,6.464l1.994,4.192c-0.347,0.648-0.632,1.334-0.849,2.05l-4.378,1.557C0.708,14.834,0.667,15.412,0.667,16s0.041,1.165,0.105,1.736l4.378,1.558c0.217,0.715,0.502,1.401,0.849,2.049l-1.994,4.193c0.725,0.909,1.549,1.733,2.459,2.458l4.192-1.993c0.648,0.347,1.334,0.633,2.05,0.851l1.557,4.377c0.571,0.064,1.148,0.104,1.737,0.104c0.588,0,1.165-0.04,1.736-0.104l1.558-4.377c0.715-0.218,1.399-0.504,2.049-0.851l4.193,1.993c0.909-0.725,1.733-1.549,2.458-2.458l-1.993-4.193c0.347-0.647,0.633-1.334,0.851-2.049L31.229,17.736zM16,20.871c-2.69,0-4.872-2.182-4.872-4.871c0-2.69,2.182-4.872,4.872-4.872c2.689,0,4.871,2.182,4.871,4.872C20.871,18.689,18.689,20.871,16,20.871z"></path><title>Link options.</title></g></g></g></g><!--z-index:29--><g   id="j_28" ><path  stroke="#aaaaaa" d="M 2474 485 L 2328 583 C 2322.6666666666665 587 2317 590.3333333333333 2311 593 L 1795 831" id="v-311" stroke-width="2" stroke-dasharray="30 30" fill="none" style="opacity: 1;"></path><path  fill="black" stroke="black" d="M 0 0 0 0" transform="matrix(-0.8279517130318764,0.5607993945142782,-0.5607993945142782,-0.8279517130318764,2473.543212890625,485)"></path><path  fill="#aaaaaa" stroke="#aaaaaa" d="M 20 0 L 0 10 L 20 20 z" id="v-313" transform="matrix(0.9080303070619145,-0.4189044777237947,0.4189044777237947,0.9080303070619145,1790.8110964880802,822.1197280347438)" style="opacity: 1;"></path><path  d="M 2474 485 L 2328 583 C 2322.6666666666665 587 2317 590.3333333333333 2311 593 L 1795 831" id="v-312" fill="none" style="cursor: auto; pointer-events: visiblepainted;"></path><g ><g id="v-302"  label-idx="0" cursor="move" transform="matrix(1,0,0,1,2141.81005859375,671.0372314453125)" style="cursor: default; opacity: 1;"><rect joint-selector="rect" id="v-306" fill="#111111" rx="3" ry="3" pointer-events="none" width="140.1897735595703" height="31.481212615966797" transform="matrix(1,0,0,1,-70.1,-15.8)"></rect><text joint-selector="text" id="v-305" font-size="24px" xml:space="preserve" y="0.8em" fill="#aaaaaa" text-anchor="middle" pointer-events="none" font-family="Open Sans" font-weight="normal" transform="matrix(1,0,0,1,0,-9.8)"><tspan dy="0" >Consome de</tspan></text></g><g id="v-303"  label-idx="1" cursor="move" transform="matrix(1,0,0,1,2141.81005859375,697.437255859375)" style="cursor: default; opacity: 1;"><rect joint-selector="rect" id="v-308" fill="#111111" rx="3" ry="3" pointer-events="none" width="108.46952819824219" height="23.08622169494629" transform="matrix(1,0,0,1,-53.9,-11.6)"></rect><text joint-selector="text" id="v-307" font-size="17px" xml:space="preserve" y="0.8em" fill="#aaaaaa" text-anchor="middle" pointer-events="none" font-family="Open Sans" font-weight="normal" transform="matrix(1,0,0,1,0,-6.3)"><tspan dy="0" >[SNS Topicos]</tspan></text></g><g id="v-304"  label-idx="2" cursor="move" transform="matrix(1,0,0,1,2131.81005859375,705.8372802734375)" style="cursor: default; opacity: 1;"><rect joint-selector="rect" id="v-310" fill="#ffffff" rx="3" ry="3"  width="0" height="0" transform="matrix(1,0,0,1,0,0)" display="none"></rect><text joint-selector="text" id="v-309" fill="#000000" font-size="14" text-anchor="middle" pointer-events="none"></text></g></g><g  display="none" style="display: none;"><g  transform="translate(2320, 589)" id="v-360"><circle  idx="0" r="10"></circle><path  idx="0" d="M16,5.333c-7.732,0-14,4.701-14,10.5c0,1.982,0.741,3.833,2.016,5.414L2,25.667l5.613-1.441c2.339,1.317,5.237,2.107,8.387,2.107c7.732,0,14-4.701,14-10.5C30,10.034,23.732,5.333,16,5.333z" transform="translate(5, -33)"></path><path  idx="0" transform="scale(.8) translate(9.5, -37)" d="M24.778,21.419 19.276,15.917 24.777,10.415 21.949,7.585 16.447,13.087 10.945,7.585 8.117,10.415 13.618,15.917 8.116,21.419 10.946,24.248 16.447,18.746 21.948,24.248z"><title>Remove vertex.</title></path></g></g><g  id="v-315" display="none"><g  id="v-300"><path  end="source" d="M 26 0 L 0 13 L 26 26 z"></path></g><g  id="v-301"><path  end="target" d="M 26 0 L 0 13 L 26 26 z"></path></g></g><g  id="v-314" display="none"><g  id="v-298" transform="translate(2440.788147192873, 507.2928875006744) "><g  event="remove"><circle r="11"></circle><path transform="scale(.8) translate(-16, -16)" d="M24.778,21.419 19.276,15.917 24.777,10.415 21.949,7.585 16.447,13.087 10.945,7.585 8.117,10.415 13.618,15.917 8.116,21.419 10.946,24.248 16.447,18.746 21.948,24.248z"></path><title>Remove link.</title></g><g  event="link:options"><circle r="11" transform="translate(25)"></circle><path fill="white" transform="scale(.55) translate(29, -16)" d="M31.229,17.736c0.064-0.571,0.104-1.148,0.104-1.736s-0.04-1.166-0.104-1.737l-4.377-1.557c-0.218-0.716-0.504-1.401-0.851-2.05l1.993-4.192c-0.725-0.91-1.549-1.734-2.458-2.459l-4.193,1.994c-0.647-0.347-1.334-0.632-2.049-0.849l-1.558-4.378C17.165,0.708,16.588,0.667,16,0.667s-1.166,0.041-1.737,0.105L12.707,5.15c-0.716,0.217-1.401,0.502-2.05,0.849L6.464,4.005C5.554,4.73,4.73,5.554,4.005,6.464l1.994,4.192c-0.347,0.648-0.632,1.334-0.849,2.05l-4.378,1.557C0.708,14.834,0.667,15.412,0.667,16s0.041,1.165,0.105,1.736l4.378,1.558c0.217,0.715,0.502,1.401,0.849,2.049l-1.994,4.193c0.725,0.909,1.549,1.733,2.459,2.458l4.192-1.993c0.648,0.347,1.334,0.633,2.05,0.851l1.557,4.377c0.571,0.064,1.148,0.104,1.737,0.104c0.588,0,1.165-0.04,1.736-0.104l1.558-4.377c0.715-0.218,1.399-0.504,2.049-0.851l4.193,1.993c0.909-0.725,1.733-1.549,2.458-2.458l-1.993-4.193c0.347-0.647,0.633-1.334,0.851-2.049L31.229,17.736zM16,20.871c-2.69,0-4.872-2.182-4.872-4.871c0-2.69,2.182-4.872,4.872-4.872c2.689,0,4.871,2.182,4.871,4.872C20.871,18.689,18.689,20.871,16,20.871z"></path><title>Link options.</title></g></g></g></g><!--z-index:30--><g   id="j_29" ><path  stroke="#aaaaaa" d="M 2648 485 L 2554 785" id="v-331" stroke-width="2" stroke-dasharray="30 30" fill="none" style="opacity: 1;"></path><path  fill="black" stroke="black" d="M 0 0 0 0" transform="matrix(-0.2989993942675182,0.9542533008733357,-0.9542533008733357,-0.2989993942675182,2648,485)"></path><path  fill="#aaaaaa" stroke="#aaaaaa" d="M 20 0 L 0 10 L 20 20 z" id="v-333" transform="matrix(0.29899952133402835,-0.9542532610591496,0.9542532610591496,0.29899952133402835,2544.457462410443,782.009995893345)" style="opacity: 1;"></path><path  d="M 2648 485 L 2554 785" id="v-332" fill="none" style="cursor: auto; pointer-events: visiblepainted;"></path><g ><g id="v-322"  label-idx="0" cursor="move" transform="matrix(1,0,0,1,2601,635)" style="cursor: default; opacity: 1;"><rect joint-selector="rect" id="v-326" fill="#111111" rx="3" ry="3" pointer-events="none" width="192.69125366210938" height="89.08122253417969" transform="matrix(1,0,0,1,-96.3,-44.6)"></rect><text joint-selector="text" id="v-325" font-size="24px" xml:space="preserve" y="0.8em" fill="#aaaaaa" text-anchor="middle" pointer-events="none" font-family="Open Sans" font-weight="normal" transform="matrix(1,0,0,1,0,-38.6)"><tspan dy="0" >Armazena</tspan><tspan dy="1.2em" x="0" >Lançamentos,</tspan><tspan dy="1.2em" x="0" >Consolidados em</tspan></text></g><g id="v-323"  label-idx="1" cursor="move" transform="matrix(1,0,0,1,2601,690.2000122070312)" style="cursor: default; opacity: 1;"><rect joint-selector="rect" id="v-328" fill="#111111" rx="3" ry="3" pointer-events="none" width="172.62570190429688" height="23.08622169494629" transform="matrix(1,0,0,1,-86,-11.6)"></rect><text joint-selector="text" id="v-327" font-size="17px" xml:space="preserve" y="0.8em" fill="#aaaaaa" text-anchor="middle" pointer-events="none" font-family="Open Sans" font-weight="normal" transform="matrix(1,0,0,1,0,-6.3)"><tspan dy="0" >[DynamoDB Protocol]</tspan></text></g><g id="v-324"  label-idx="2" cursor="move" transform="matrix(1,0,0,1,2591,698.5999755859375)" style="cursor: default; opacity: 1;"><rect joint-selector="rect" id="v-330" fill="#ffffff" rx="3" ry="3"  width="0" height="0" transform="matrix(1,0,0,1,0,0)" display="none"></rect><text joint-selector="text" id="v-329" fill="#000000" font-size="14" text-anchor="middle" pointer-events="none"></text></g></g><g  display="none" style="display: none;"></g><g  id="v-335" display="none"><g  id="v-320"><path  end="source" d="M 26 0 L 0 13 L 26 26 z"></path></g><g  id="v-321"><path  end="target" d="M 26 0 L 0 13 L 26 26 z"></path></g></g><g  id="v-334" display="none"><g  id="v-319" transform="translate(2636.0400252003824, 523.170132339206) "><g  event="remove"><circle r="11"></circle><path transform="scale(.8) translate(-16, -16)" d="M24.778,21.419 19.276,15.917 24.777,10.415 21.949,7.585 16.447,13.087 10.945,7.585 8.117,10.415 13.618,15.917 8.116,21.419 10.946,24.248 16.447,18.746 21.948,24.248z"></path><title>Remove link.</title></g><g  event="link:options"><circle r="11" transform="translate(25)"></circle><path fill="white" transform="scale(.55) translate(29, -16)" d="M31.229,17.736c0.064-0.571,0.104-1.148,0.104-1.736s-0.04-1.166-0.104-1.737l-4.377-1.557c-0.218-0.716-0.504-1.401-0.851-2.05l1.993-4.192c-0.725-0.91-1.549-1.734-2.458-2.459l-4.193,1.994c-0.647-0.347-1.334-0.632-2.049-0.849l-1.558-4.378C17.165,0.708,16.588,0.667,16,0.667s-1.166,0.041-1.737,0.105L12.707,5.15c-0.716,0.217-1.401,0.502-2.05,0.849L6.464,4.005C5.554,4.73,4.73,5.554,4.005,6.464l1.994,4.192c-0.347,0.648-0.632,1.334-0.849,2.05l-4.378,1.557C0.708,14.834,0.667,15.412,0.667,16s0.041,1.165,0.105,1.736l4.378,1.558c0.217,0.715,0.502,1.401,0.849,2.049l-1.994,4.193c0.725,0.909,1.549,1.733,2.459,2.458l4.192-1.993c0.648,0.347,1.334,0.633,2.05,0.851l1.557,4.377c0.571,0.064,1.148,0.104,1.737,0.104c0.588,0,1.165-0.04,1.736-0.104l1.558-4.377c0.715-0.218,1.399-0.504,2.049-0.851l4.193,1.993c0.909-0.725,1.733-1.549,2.458-2.458l-1.993-4.193c0.347-0.647,0.633-1.334,0.851-2.049L31.229,17.736zM16,20.871c-2.69,0-4.872-2.182-4.872-4.871c0-2.69,2.182-4.872,4.872-4.872c2.689,0,4.871,2.182,4.871,4.872C20.871,18.689,18.689,20.871,16,20.871z"></path><title>Link options.</title></g></g></g></g><!--z-index:31--><g   id="j_30" ><path  stroke="#aaaaaa" d="M 1851 485 L 1664 785" id="v-348" stroke-width="2" stroke-dasharray="30 30" fill="none" style="opacity: 1;"></path><path  fill="black" stroke="black" d="M 0 0 0 0" transform="matrix(-0.529998873624456,0.8479983454917867,-0.8479983454917867,-0.529998873624456,1851.25,485)"></path><path  fill="#aaaaaa" stroke="#aaaaaa" d="M 20 0 L 0 10 L 20 20 z" id="v-350" transform="matrix(0.5299987607066414,-0.847998416065398,0.847998416065398,0.5299987607066414,1655.2700770604044,779.7000771199939)" style="opacity: 1;"></path><path  d="M 1851 485 L 1664 785" id="v-349" fill="none" style="cursor: auto; pointer-events: visiblepainted;"></path><g ><g id="v-339"  label-idx="0" cursor="move" transform="matrix(1,0,0,1,1757.5,635)" style="cursor: default; opacity: 1;"><rect joint-selector="rect" id="v-343" fill="#111111" rx="3" ry="3" pointer-events="none" width="140.1897735595703" height="31.481212615966797" transform="matrix(1,0,0,1,-70.1,-15.8)"></rect><text joint-selector="text" id="v-342" font-size="24px" xml:space="preserve" y="0.8em" fill="#aaaaaa" text-anchor="middle" pointer-events="none" font-family="Open Sans" font-weight="normal" transform="matrix(1,0,0,1,0,-9.8)"><tspan dy="0" >Consome de</tspan></text></g><g id="v-340"  label-idx="1" cursor="move" transform="matrix(1,0,0,1,1757.5,661.4000244140625)" style="cursor: default; opacity: 1;"><rect joint-selector="rect" id="v-345" fill="#111111" rx="3" ry="3" pointer-events="none" width="108.46952819824219" height="23.08622169494629" transform="matrix(1,0,0,1,-53.9,-11.6)"></rect><text joint-selector="text" id="v-344" font-size="17px" xml:space="preserve" y="0.8em" fill="#aaaaaa" text-anchor="middle" pointer-events="none" font-family="Open Sans" font-weight="normal" transform="matrix(1,0,0,1,0,-6.3)"><tspan dy="0" >[SNS Topicos]</tspan></text></g><g id="v-341"  label-idx="2" cursor="move" transform="matrix(1,0,0,1,1747.5,669.7999877929688)" style="cursor: default; opacity: 1;"><rect joint-selector="rect" id="v-347" fill="#ffffff" rx="3" ry="3"  width="0" height="0" transform="matrix(1,0,0,1,0,0)" display="none"></rect><text joint-selector="text" id="v-346" fill="#000000" font-size="14" text-anchor="middle" pointer-events="none"></text></g></g><g  display="none" style="display: none;"></g><g  id="v-352" display="none"><g  id="v-337"><path  end="source" d="M 26 0 L 0 13 L 26 26 z"></path></g><g  id="v-338"><path  end="target" d="M 26 0 L 0 13 L 26 26 z"></path></g></g><g  id="v-351" display="none"><g  id="v-336" transform="translate(1829.8407411961143, 518.9453349794958) "><g  event="remove"><circle r="11"></circle><path transform="scale(.8) translate(-16, -16)" d="M24.778,21.419 19.276,15.917 24.777,10.415 21.949,7.585 16.447,13.087 10.945,7.585 8.117,10.415 13.618,15.917 8.116,21.419 10.946,24.248 16.447,18.746 21.948,24.248z"></path><title>Remove link.</title></g><g  event="link:options"><circle r="11" transform="translate(25)"></circle><path fill="white" transform="scale(.55) translate(29, -16)" d="M31.229,17.736c0.064-0.571,0.104-1.148,0.104-1.736s-0.04-1.166-0.104-1.737l-4.377-1.557c-0.218-0.716-0.504-1.401-0.851-2.05l1.993-4.192c-0.725-0.91-1.549-1.734-2.458-2.459l-4.193,1.994c-0.647-0.347-1.334-0.632-2.049-0.849l-1.558-4.378C17.165,0.708,16.588,0.667,16,0.667s-1.166,0.041-1.737,0.105L12.707,5.15c-0.716,0.217-1.401,0.502-2.05,0.849L6.464,4.005C5.554,4.73,4.73,5.554,4.005,6.464l1.994,4.192c-0.347,0.648-0.632,1.334-0.849,2.05l-4.378,1.557C0.708,14.834,0.667,15.412,0.667,16s0.041,1.165,0.105,1.736l4.378,1.558c0.217,0.715,0.502,1.401,0.849,2.049l-1.994,4.193c0.725,0.909,1.549,1.733,2.459,2.458l4.192-1.993c0.648,0.347,1.334,0.633,2.05,0.851l1.557,4.377c0.571,0.064,1.148,0.104,1.737,0.104c0.588,0,1.165-0.04,1.736-0.104l1.558-4.377c0.715-0.218,1.399-0.504,2.049-0.851l4.193,1.993c0.909-0.725,1.733-1.549,2.458-2.458l-1.993-4.193c0.347-0.647,0.633-1.334,0.851-2.049L31.229,17.736zM16,20.871c-2.69,0-4.872-2.182-4.872-4.871c0-2.69,2.182-4.872,4.872-4.872c2.689,0,4.871,2.182,4.871,4.872C20.871,18.689,18.689,20.871,16,20.871z"></path><title>Link options.</title></g></g></g></g><!--z-index:32--></g><g ></g><g ></g><g ></g></g></svg>