<svg xmlns="http://www.w3.org/2000/svg" xmlns:xlink="http://www.w3.org/1999/xlink" version="1.1" viewBox="0 0 3120 1420" style="background: #111111"><defs><style>@import url(https://fonts.googleapis.com/css?family=Open+Sans:400,700);</style></defs><defs joint-selector="defs"></defs><g joint-selector="layers"  transform="matrix(1,0,0,1,0,0)"><g ></g><g ><!--z-index:1--><!--z-index:2--><!--z-index:3--><!--z-index:4--><!--z-index:5--><!--z-index:6--><!--z-index:7--><!--z-index:8--><!--z-index:9--><!--z-index:10--><!--z-index:11--><!--z-index:12--><!--z-index:13--><!--z-index:14--><!--z-index:15--><g   id="j_7"  transform="translate(20,1383.6)"><g id="v-43"><text  id="v-44" font-size="22px" xml:space="preserve" y="0.8em" font-weight="normal" text-anchor="start" fill="#777777" pointer-events="none" display="block" font-family="Open Sans"><tspan dy="0" >quarta-feira, 12 de fevereiro de 2025 às 02:42 Horário Padrão de Brasília</tspan></text></g></g><!--z-index:16--><g   id="j_6"  transform="translate(20,1340.3999999999999)"><g id="v-41"><text  id="v-42" font-size="36px" xml:space="preserve" y="0.8em" font-weight="normal" text-anchor="start" fill="#bbbbbb" pointer-events="none" display="block" font-family="Open Sans"><tspan dy="0" >[Container] Desafio Carrefour</tspan></text></g></g><!--z-index:17--><g   id="j_8"  transform="translate(199,785)" style=""><g  id="v-51" style="opacity: 1;"><rect  x="0" y="160" width="400" height="240" rx="70" id="v-53" stroke="#073b6f" stroke-width="2" pointer-events="visiblePainted" fill="#08427b" style="fill: rgb(8, 66, 123); stroke: rgb(7, 59, 111);"></rect><circle  cx="200" cy="88.88888888888889" r="88.88888888888889" id="v-52" stroke="#073b6f" stroke-width="2" pointer-events="visiblePainted" fill="#08427b" style="fill: rgb(8, 66, 123); stroke: rgb(7, 59, 111);"></circle><line  x1="80" y1="266.6666666666667" x2="80" y2="400" id="v-59" stroke="#073b6f" stroke-width="2" style="stroke: rgb(7, 59, 111);"></line><line  x1="320" y1="266.6666666666667" x2="320" y2="400" id="v-60" stroke="#073b6f" stroke-width="2" style="stroke: rgb(7, 59, 111);"></line><text  id="v-54" font-size="34" xml:space="preserve" y="0.8em" font-weight="bold" text-anchor="middle" pointer-events="visible" font-family="Open Sans" fill="#ffffff" transform="matrix(1,0,0,1,200,212.1)" style="fill: rgb(255, 255, 255);"><tspan dy="0" >Administrador</tspan><tspan dy="1.2em" x="0" >Financeiro</tspan></text><text  id="v-55" font-size="17" xml:space="preserve" y="0.8em" text-anchor="middle" font-family="Open Sans" fill="#ffffff" transform="matrix(1,0,0,1,200,293.7)" style="fill: rgb(255, 255, 255);"><tspan dy="0" >[Person]</tspan></text><text  id="v-56" font-size="24" xml:space="preserve" y="0.8em" text-anchor="middle" font-family="Open Sans" fill="#ffffff" transform="matrix(1,0,0,1,200,324.1)" style="fill: rgb(255, 255, 255);"><tspan dy="0" >Gerenciar o fluxo de caixa</tspan></text><g  id="v-57" font-weight="normal" text-anchor="middle" color="#ffffff" transform="matrix(1,0,0,1,197.5,368)" style="fill: rgb(255, 255, 255);" display="none"><g ></g><g ></g><g ></g><g ></g></g><image  id="v-58"></image></g></g><!--z-index:18--><g   id="j_10"  transform="translate(929,165)" style=""><g id="v-69"><rect  id="v-70" width="1990" height="1011" rx="0" ry="0" fill="#111111" stroke="#0f5eaa" stroke-width="1" stroke-dasharray="20,20" pointer-events="none"></rect><text  id="v-71" font-size="24px" xml:space="preserve" y="972" font-weight="normal" fill="#0f5eaa" text-anchor="start" pointer-events="visible" font-family="Open Sans" transform="matrix(1,0,0,1,15,0)"><tspan dy="0" >Desafio Carrefour</tspan></text><text  id="v-72" font-size="17px" xml:space="preserve" y="996" font-weight="normal" fill="#0f5eaa" text-anchor="start" pointer-events="visible" font-family="Open Sans" transform="matrix(1,0,0,1,15,0)"><tspan dy="0" >[Software System]</tspan></text><image  id="v-73" pointer-events="visible"></image></g></g><!--z-index:19--><g   id="j_9"  transform="translate(2449,785)" style=""><g  id="v-61" style="opacity: 1;"><path  d="M 0,30 a 225,30 0,0,0 450 0 a 225,30 0,0,0 -450 0 l 0,240 a 225,30 0,0,0 450 0 l 0,-240" id="v-62" stroke="#3c7fc0" stroke-width="2" pointer-events="visiblePainted" fill="#438dd5" style="fill: rgb(67, 141, 213); stroke: rgb(60, 127, 192);"></path><rect  id="v-63" stroke-width="0" pointer-events="visiblePainted" fill="none" stroke="none" width="450" height="270" x="0" y="30"></rect><text  id="v-64" font-size="34" xml:space="preserve" y="0.8em" font-weight="bold" text-anchor="middle" pointer-events="visible" font-family="Open Sans" fill="#ffffff" transform="matrix(1,0,0,1,225,125)" style="fill: rgb(255, 255, 255);"><tspan dy="0" >Documentos</tspan></text><text  id="v-65" font-size="17" xml:space="preserve" y="0.8em" text-anchor="middle" font-family="Open Sans" fill="#ffffff" transform="matrix(1,0,0,1,225,165.8)" style="fill: rgb(255, 255, 255);"><tspan dy="0" >[Container: DynamoDB]</tspan></text><text  id="v-66" font-size="24" xml:space="preserve" y="0.8em" text-anchor="middle" font-family="Open Sans" fill="#ffffff" transform="matrix(1,0,0,1,225,196.2)" style="fill: rgb(255, 255, 255);"><tspan dy="0" >Registra Documentos</tspan></text><g  id="v-67" font-weight="normal" text-anchor="middle" color="#ffffff" transform="matrix(1,0,0,1,222.5,268)" style="fill: rgb(255, 255, 255);" display="none"><g ></g><g ></g><g ></g><g ></g></g><image  id="v-68"></image></g></g><!--z-index:20--><g   id="j_11"  transform="translate(1699,785)" style=""><g  id="v-77" style="opacity: 1;"><rect  id="v-78" rx="20" ry="20" stroke="#3c7fc0" stroke-width="2" pointer-events="visiblePainted" fill="#438dd5" width="450" height="300" style="fill: rgb(67, 141, 213); stroke: rgb(60, 127, 192);"></rect><text  id="v-79" font-size="34" xml:space="preserve" y="0.8em" font-weight="bold" text-anchor="middle" pointer-events="visible" font-family="Open Sans" fill="#ffffff" transform="matrix(1,0,0,1,225,102.5)" style="fill: rgb(255, 255, 255);"><tspan dy="0" >Back-End</tspan></text><text  id="v-80" font-size="17" xml:space="preserve" y="0.8em" text-anchor="middle" font-family="Open Sans" fill="#ffffff" transform="matrix(1,0,0,1,225,143.3)" style="fill: rgb(255, 255, 255);"><tspan dy="0" >[Container: Minimal API]</tspan></text><text  id="v-81" font-size="24" xml:space="preserve" y="0.8em" text-anchor="middle" font-family="Open Sans" fill="#ffffff" transform="matrix(1,0,0,1,225,173.7)" style="fill: rgb(255, 255, 255);"><tspan dy="0" >Ecossistema de MicroServiços</tspan></text><g  id="v-82" color="#ffffff" transform="matrix(1,0,0,1,210,268)" style="fill: rgb(255, 255, 255);" display="none"><g  transform="translate(5 0)"><svg xmlns="http://www.w3.org/2000/svg" width="20" height="20" fill="currentColor" viewBox="0 0 16 16"><path fill-rule="evenodd" d="M6.5 12a5.5 5.5 0 1 0 0-11 5.5 5.5 0 0 0 0 11zM13 6.5a6.5 6.5 0 1 1-13 0 6.5 6.5 0 0 1 13 0z"></path><path d="M10.344 11.742c.03.04.062.078.098.115l3.85 3.85a1 1 0 0 0 1.415-1.414l-3.85-3.85a1.007 1.007 0 0 0-.115-.1 6.538 6.538 0 0 1-1.398 1.4z"></path><path fill-rule="evenodd" d="M6.5 3a.5.5 0 0 1 .5.5V6h2.5a.5.5 0 0 1 0 1H7v2.5a.5.5 0 0 1-1 0V7H3.5a.5.5 0 0 1 0-1H6V3.5a.5.5 0 0 1 .5-.5z"></path></svg></g><g ></g><g ></g><g ></g></g><image  id="v-83"></image></g></g><!--z-index:21--><g   id="j_12"  transform="translate(2449,185)" style=""><g  id="v-87" style="opacity: 1;"><rect  id="v-88" rx="20" ry="20" stroke="#3c7fc0" stroke-width="2" pointer-events="visiblePainted" fill="#438dd5" width="450" height="300" style="fill: rgb(67, 141, 213); stroke: rgb(60, 127, 192);"></rect><text  id="v-89" font-size="34" xml:space="preserve" y="0.8em" font-weight="bold" text-anchor="middle" pointer-events="visible" font-family="Open Sans" fill="#ffffff" transform="matrix(1,0,0,1,225,73.7)" style="fill: rgb(255, 255, 255);"><tspan dy="0" >RabbitMQ</tspan></text><text  id="v-90" font-size="17" xml:space="preserve" y="0.8em" text-anchor="middle" font-family="Open Sans" fill="#ffffff" transform="matrix(1,0,0,1,225,114.5)" style="fill: rgb(255, 255, 255);"><tspan dy="0" >[Container: RabbitMQ Protocol]</tspan></text><text  id="v-91" font-size="24" xml:space="preserve" y="0.8em" text-anchor="middle" font-family="Open Sans" fill="#ffffff" transform="matrix(1,0,0,1,225,144.9)" style="fill: rgb(255, 255, 255);"><tspan dy="0" >Responsável por enviar as</tspan><tspan dy="1.2em" x="0" >solicitações de Dcoumentos para a</tspan><tspan dy="1.2em" x="0" >Integração</tspan></text><g  id="v-92" color="#ffffff" transform="matrix(1,0,0,1,222.5,268)" style="fill: rgb(255, 255, 255);" display="none"><g ></g><g ></g><g ></g><g ></g></g><image  id="v-93"></image></g></g><!--z-index:22--><g   id="j_13"  transform="translate(949,785)" style=""><g  id="v-97" style="opacity: 1;"><rect  id="v-98" rx="10" ry="10" stroke="#7aa8de" stroke-width="2" pointer-events="visiblePainted" fill="#7aa8de" width="450" height="300" style="fill: rgb(122, 168, 222); stroke: rgb(122, 168, 222);"></rect><rect  id="v-99" rx="10" ry="10" stroke="#7aa8de" stroke-width="0" pointer-events="visiblePainted" fill="#88bbf7" width="430" height="250" x="10" y="40" style="fill: rgb(136, 187, 247);"></rect><ellipse  id="v-106" fill="#88bbf7" cx="20" cy="20" rx="10" ry="10" style="fill: rgb(136, 187, 247);"></ellipse><ellipse  id="v-107" fill="#88bbf7" cx="50" cy="20" rx="10" ry="10" style="fill: rgb(136, 187, 247);"></ellipse><ellipse  id="v-108" fill="#88bbf7" cx="80" cy="20" rx="10" ry="10" style="fill: rgb(136, 187, 247);"></ellipse><rect  id="v-100" rx="10" ry="10" stroke="#444444" stroke-width="0" pointer-events="visiblePainted" fill="#88bbf7" width="340" height="20" x="100" y="10" style="fill: rgb(136, 187, 247);"></rect><text  id="v-101" font-size="34" xml:space="preserve" y="0.8em" font-weight="bold" text-anchor="middle" pointer-events="visible" font-family="Open Sans" fill="#ffffff" transform="matrix(1,0,0,1,225,103.1)" style="fill: rgb(255, 255, 255);"><tspan dy="0" >Fluxo de Caixa</tspan></text><text  id="v-102" font-size="17" xml:space="preserve" y="0.8em" text-anchor="middle" font-family="Open Sans" fill="#ffffff" transform="matrix(1,0,0,1,225,143.9)" style="fill: rgb(255, 255, 255);"><tspan dy="0" >[Container: React/Vite]</tspan></text><text  id="v-103" font-size="24" xml:space="preserve" y="0.8em" text-anchor="middle" font-family="Open Sans" fill="#ffffff" transform="matrix(1,0,0,1,225,174.3)" style="fill: rgb(255, 255, 255);"><tspan dy="0" >Registra e exibe os lançamentos</tspan><tspan dy="1.2em" x="0" >financeiros</tspan></text><g  id="v-104" font-weight="normal" text-anchor="middle" color="#ffffff" transform="matrix(1,0,0,1,222.5,258)" style="fill: rgb(255, 255, 255);" display="none"><g ></g><g ></g><g ></g><g ></g></g><image  id="v-105"></image></g></g><!--z-index:23--><g   id="j_14" ><path  stroke="#aaaaaa" d="M 2149 1025 C 2199 1055 2249 1085 2299 1085 C 2349 1085 2399 1055 2449 1025" id="v-125" stroke-width="2" stroke-dasharray="30 30" fill="none" style="opacity: 1;"></path><path  fill="black" stroke="black" d="M 0 0 0 0" transform="matrix(0.9284767202703791,0.37139060289129594,-0.37139060289129594,0.9284767202703791,2149,1025)"></path><path  fill="#aaaaaa" stroke="#aaaaaa" d="M 20 0 L 0 10 L 20 20 z" id="v-127" transform="matrix(-0.928476707906966,0.37139063379983406,-0.37139063379983406,-0.928476707906966,2452.714005448318,1034.2847279285713)" style="opacity: 1;"></path><path  d="M 2149 1025 C 2199 1055 2249 1085 2299 1085 C 2349 1085 2399 1055 2449 1025" id="v-126" fill="none" style="cursor: auto; pointer-events: visiblepainted;"></path><g ><g id="v-116"  label-idx="0" cursor="move" transform="matrix(1,0,0,1,2299,1085)" style="cursor: default; opacity: 1;"><rect joint-selector="rect" id="v-120" fill="#111111" rx="3" ry="3" pointer-events="none" width="184.7318115234375" height="61.94996452331543" transform="matrix(1,0,0,1,-92.4,-30.9)"></rect><text joint-selector="text" id="v-119" font-size="24px" xml:space="preserve" y="0.8em" fill="#aaaaaa" text-anchor="middle" pointer-events="none" font-family="Open Sans" font-weight="normal" transform="matrix(1,0,0,1,0,-24.8)"><tspan dy="0" >Armazena</tspan><tspan dy="1.2em" x="0" >Documentos em</tspan></text></g><g id="v-117"  label-idx="1" cursor="move" transform="matrix(1,0,0,1,2299,1125.800048828125)" style="cursor: default; opacity: 1;"><rect joint-selector="rect" id="v-122" fill="#111111" rx="3" ry="3" pointer-events="none" width="172.0290069580078" height="23.399971961975098" transform="matrix(1,0,0,1,-85.9,-11.7)"></rect><text joint-selector="text" id="v-121" font-size="17px" xml:space="preserve" y="0.8em" fill="#aaaaaa" text-anchor="middle" pointer-events="none" font-family="Open Sans" font-weight="normal" transform="matrix(1,0,0,1,0,-7.8)"><tspan dy="0" >[DynamoDB Protocol]</tspan></text></g><g id="v-118"  label-idx="2" cursor="move" transform="matrix(1,0,0,1,2289,1134.199951171875)" style="cursor: default; opacity: 1;"><rect joint-selector="rect" id="v-124" fill="#ffffff" rx="3" ry="3"  width="0" height="0" transform="matrix(1,0,0,1,0,0)" display="none"></rect><text joint-selector="text" id="v-123" fill="#000000" font-size="14" text-anchor="middle" pointer-events="none"></text></g></g><g  display="none" style="display: none;"><g  transform="translate(2299, 1085)" id="v-113"><circle  idx="0" r="10"></circle><path  idx="0" d="M16,5.333c-7.732,0-14,4.701-14,10.5c0,1.982,0.741,3.833,2.016,5.414L2,25.667l5.613-1.441c2.339,1.317,5.237,2.107,8.387,2.107c7.732,0,14-4.701,14-10.5C30,10.034,23.732,5.333,16,5.333z" transform="translate(5, -33)"></path><path  idx="0" transform="scale(.8) translate(9.5, -37)" d="M24.778,21.419 19.276,15.917 24.777,10.415 21.949,7.585 16.447,13.087 10.945,7.585 8.117,10.415 13.618,15.917 8.116,21.419 10.946,24.248 16.447,18.746 21.948,24.248z"><title>Remove vertex.</title></path></g></g><g  id="v-129" display="none"><g  id="v-114"><path  end="source" d="M 26 0 L 0 13 L 26 26 z"></path></g><g  id="v-115"><path  end="target" d="M 26 0 L 0 13 L 26 26 z"></path></g></g><g  id="v-128" display="none"><g  id="v-112" transform="translate(2183.5703125, 1045.3749412298203) "><g  event="remove"><circle r="11"></circle><path transform="scale(.8) translate(-16, -16)" d="M24.778,21.419 19.276,15.917 24.777,10.415 21.949,7.585 16.447,13.087 10.945,7.585 8.117,10.415 13.618,15.917 8.116,21.419 10.946,24.248 16.447,18.746 21.948,24.248z"></path><title>Remove link.</title></g><g  event="link:options"><circle r="11" transform="translate(25)"></circle><path fill="white" transform="scale(.55) translate(29, -16)" d="M31.229,17.736c0.064-0.571,0.104-1.148,0.104-1.736s-0.04-1.166-0.104-1.737l-4.377-1.557c-0.218-0.716-0.504-1.401-0.851-2.05l1.993-4.192c-0.725-0.91-1.549-1.734-2.458-2.459l-4.193,1.994c-0.647-0.347-1.334-0.632-2.049-0.849l-1.558-4.378C17.165,0.708,16.588,0.667,16,0.667s-1.166,0.041-1.737,0.105L12.707,5.15c-0.716,0.217-1.401,0.502-2.05,0.849L6.464,4.005C5.554,4.73,4.73,5.554,4.005,6.464l1.994,4.192c-0.347,0.648-0.632,1.334-0.849,2.05l-4.378,1.557C0.708,14.834,0.667,15.412,0.667,16s0.041,1.165,0.105,1.736l4.378,1.558c0.217,0.715,0.502,1.401,0.849,2.049l-1.994,4.193c0.725,0.909,1.549,1.733,2.459,2.458l4.192-1.993c0.648,0.347,1.334,0.633,2.05,0.851l1.557,4.377c0.571,0.064,1.148,0.104,1.737,0.104c0.588,0,1.165-0.04,1.736-0.104l1.558-4.377c0.715-0.218,1.399-0.504,2.049-0.851l4.193,1.993c0.909-0.725,1.733-1.549,2.458-2.458l-1.993-4.193c0.347-0.647,0.633-1.334,0.851-2.049L31.229,17.736zM16,20.871c-2.69,0-4.872-2.182-4.872-4.871c0-2.69,2.182-4.872,4.872-4.872c2.689,0,4.871,2.182,4.871,4.872C20.871,18.689,18.689,20.871,16,20.871z"></path><title>Link options.</title></g></g></g></g><!--z-index:24--><g   id="j_15" ><path  stroke="#aaaaaa" d="M 2449 845 C 2399 815 2349 785 2299 785 C 2249 785 2199 815 2149 845" id="v-146" stroke-width="2" stroke-dasharray="30 30" fill="none" style="opacity: 1;"></path><path  fill="black" stroke="black" d="M 0 0 0 0" transform="matrix(-0.928476707906966,-0.3713906337998342,0.3713906337998342,-0.928476707906966,2449,845)"></path><path  fill="#aaaaaa" stroke="#aaaaaa" d="M 20 0 L 0 10 L 20 20 z" id="v-148" transform="matrix(0.9284766089996245,-0.3713908810681253,0.3713908810681253,0.9284766089996245,2145.2859930680725,835.715275533185)" style="opacity: 1;"></path><path  d="M 2449 845 C 2399 815 2349 785 2299 785 C 2249 785 2199 815 2149 845" id="v-147" fill="none" style="cursor: auto; pointer-events: visiblepainted;"></path><g ><g id="v-137"  label-idx="0" cursor="move" transform="matrix(1,0,0,1,2299,785)" style="cursor: default; opacity: 1;"><rect joint-selector="rect" id="v-141" fill="#111111" rx="3" ry="3" pointer-events="none" width="172.0290069580078" height="61.94996452331543" transform="matrix(1,0,0,1,-85.9,-30.9)"></rect><text joint-selector="text" id="v-140" font-size="24px" xml:space="preserve" y="0.8em" fill="#aaaaaa" text-anchor="middle" pointer-events="none" font-family="Open Sans" font-weight="normal" transform="matrix(1,0,0,1,0,-24.8)"><tspan dy="0" >Envia consultas</tspan><tspan dy="1.2em" x="0" >para</tspan></text></g><g id="v-138"  label-idx="1" cursor="move" transform="matrix(1,0,0,1,2299,825.7999877929688)" style="cursor: default; opacity: 1;"><rect joint-selector="rect" id="v-143" fill="#111111" rx="3" ry="3" pointer-events="none" width="172.0290069580078" height="23.399971961975098" transform="matrix(1,0,0,1,-85.9,-11.7)"></rect><text joint-selector="text" id="v-142" font-size="17px" xml:space="preserve" y="0.8em" fill="#aaaaaa" text-anchor="middle" pointer-events="none" font-family="Open Sans" font-weight="normal" transform="matrix(1,0,0,1,0,-7.8)"><tspan dy="0" >[DynamoDB Protocol]</tspan></text></g><g id="v-139"  label-idx="2" cursor="move" transform="matrix(1,0,0,1,2289,834.2000122070312)" style="cursor: default; opacity: 1;"><rect joint-selector="rect" id="v-145" fill="#ffffff" rx="3" ry="3"  width="0" height="0" transform="matrix(1,0,0,1,0,0)" display="none"></rect><text joint-selector="text" id="v-144" fill="#000000" font-size="14" text-anchor="middle" pointer-events="none"></text></g></g><g  display="none" style="display: none;"><g  transform="translate(2299, 785)" id="v-134"><circle  idx="0" r="10"></circle><path  idx="0" d="M16,5.333c-7.732,0-14,4.701-14,10.5c0,1.982,0.741,3.833,2.016,5.414L2,25.667l5.613-1.441c2.339,1.317,5.237,2.107,8.387,2.107c7.732,0,14-4.701,14-10.5C30,10.034,23.732,5.333,16,5.333z" transform="translate(5, -33)"></path><path  idx="0" transform="scale(.8) translate(9.5, -37)" d="M24.778,21.419 19.276,15.917 24.777,10.415 21.949,7.585 16.447,13.087 10.945,7.585 8.117,10.415 13.618,15.917 8.116,21.419 10.946,24.248 16.447,18.746 21.948,24.248z"><title>Remove vertex.</title></path></g></g><g  id="v-150" display="none"><g  id="v-135"><path  end="source" d="M 26 0 L 0 13 L 26 26 z"></path></g><g  id="v-136"><path  end="target" d="M 26 0 L 0 13 L 26 26 z"></path></g></g><g  id="v-149" display="none"><g  id="v-133" transform="translate(2414.4296875, 824.6250587701797) "><g  event="remove"><circle r="11"></circle><path transform="scale(.8) translate(-16, -16)" d="M24.778,21.419 19.276,15.917 24.777,10.415 21.949,7.585 16.447,13.087 10.945,7.585 8.117,10.415 13.618,15.917 8.116,21.419 10.946,24.248 16.447,18.746 21.948,24.248z"></path><title>Remove link.</title></g><g  event="link:options"><circle r="11" transform="translate(25)"></circle><path fill="white" transform="scale(.55) translate(29, -16)" d="M31.229,17.736c0.064-0.571,0.104-1.148,0.104-1.736s-0.04-1.166-0.104-1.737l-4.377-1.557c-0.218-0.716-0.504-1.401-0.851-2.05l1.993-4.192c-0.725-0.91-1.549-1.734-2.458-2.459l-4.193,1.994c-0.647-0.347-1.334-0.632-2.049-0.849l-1.558-4.378C17.165,0.708,16.588,0.667,16,0.667s-1.166,0.041-1.737,0.105L12.707,5.15c-0.716,0.217-1.401,0.502-2.05,0.849L6.464,4.005C5.554,4.73,4.73,5.554,4.005,6.464l1.994,4.192c-0.347,0.648-0.632,1.334-0.849,2.05l-4.378,1.557C0.708,14.834,0.667,15.412,0.667,16s0.041,1.165,0.105,1.736l4.378,1.558c0.217,0.715,0.502,1.401,0.849,2.049l-1.994,4.193c0.725,0.909,1.549,1.733,2.459,2.458l4.192-1.993c0.648,0.347,1.334,0.633,2.05,0.851l1.557,4.377c0.571,0.064,1.148,0.104,1.737,0.104c0.588,0,1.165-0.04,1.736-0.104l1.558-4.377c0.715-0.218,1.399-0.504,2.049-0.851l4.193,1.993c0.909-0.725,1.733-1.549,2.458-2.458l-1.993-4.193c0.347-0.647,0.633-1.334,0.851-2.049L31.229,17.736zM16,20.871c-2.69,0-4.872-2.182-4.872-4.871c0-2.69,2.182-4.872,4.872-4.872c2.689,0,4.871,2.182,4.871,4.872C20.871,18.689,18.689,20.871,16,20.871z"></path><title>Link options.</title></g></g></g></g><!--z-index:25--><g   id="j_16" ><path  stroke="#aaaaaa" d="M 2111 785 L 2487 485" id="v-163" stroke-width="2" stroke-dasharray="30 30" fill="none" style="opacity: 1;"></path><path  fill="black" stroke="black" d="M 0 0 0 0" transform="matrix(0.7808686753084834,-0.624695215222571,0.624695215222571,0.7808686753084834,2111.5,785.0000610351562)"></path><path  fill="#aaaaaa" stroke="#aaaaaa" d="M 20 0 L 0 10 L 20 20 z" id="v-165" transform="matrix(-0.7808688416748546,0.6246950072646418,-0.6246950072646418,-0.7808688416748546,2492.747044739395,492.80868658628964)" style="opacity: 1;"></path><path  d="M 2111 785 L 2487 485" id="v-164" fill="none" style="cursor: auto; pointer-events: visiblepainted;"></path><g ><g id="v-154"  label-idx="0" cursor="move" transform="matrix(1,0,0,1,2299,635)" style="cursor: default; opacity: 1;"><rect joint-selector="rect" id="v-158" fill="#111111" rx="3" ry="3" pointer-events="none" width="140.3322296142578" height="33.149959564208984" transform="matrix(1,0,0,1,-70.1,-16.5)"></rect><text joint-selector="text" id="v-157" font-size="24px" xml:space="preserve" y="0.8em" fill="#aaaaaa" text-anchor="middle" pointer-events="none" font-family="Open Sans" font-weight="normal" transform="matrix(1,0,0,1,0,-10.4)"><tspan dy="0" >Consome de</tspan></text></g><g id="v-155"  label-idx="1" cursor="move" transform="matrix(1,0,0,1,2299,661.4000244140625)" style="cursor: default; opacity: 1;"><rect joint-selector="rect" id="v-160" fill="#111111" rx="3" ry="3" pointer-events="none" width="269.88031005859375" height="23.399971961975098" transform="matrix(1,0,0,1,-134.8,-11.7)"></rect><text joint-selector="text" id="v-159" font-size="17px" xml:space="preserve" y="0.8em" fill="#aaaaaa" text-anchor="middle" pointer-events="none" font-family="Open Sans" font-weight="normal" transform="matrix(1,0,0,1,0,-7.8)"><tspan dy="0" >[(Integracoes)-&gt;fluxo-caixa-queue]</tspan></text></g><g id="v-156"  label-idx="2" cursor="move" transform="matrix(1,0,0,1,2289,669.7999877929688)" style="cursor: default; opacity: 1;"><rect joint-selector="rect" id="v-162" fill="#ffffff" rx="3" ry="3"  width="0" height="0" transform="matrix(1,0,0,1,0,0)" display="none"></rect><text joint-selector="text" id="v-161" fill="#000000" font-size="14" text-anchor="middle" pointer-events="none"></text></g></g><g  display="none" style="display: none;"></g><g  id="v-167" display="none"><g  id="v-152"><path  end="source" d="M 26 0 L 0 13 L 26 26 z"></path></g><g  id="v-153"><path  end="target" d="M 26 0 L 0 13 L 26 26 z"></path></g></g><g  id="v-166" display="none"><g  id="v-151" transform="translate(2142.2671777005116, 760.0527837495919) "><g  event="remove"><circle r="11"></circle><path transform="scale(.8) translate(-16, -16)" d="M24.778,21.419 19.276,15.917 24.777,10.415 21.949,7.585 16.447,13.087 10.945,7.585 8.117,10.415 13.618,15.917 8.116,21.419 10.946,24.248 16.447,18.746 21.948,24.248z"></path><title>Remove link.</title></g><g  event="link:options"><circle r="11" transform="translate(25)"></circle><path fill="white" transform="scale(.55) translate(29, -16)" d="M31.229,17.736c0.064-0.571,0.104-1.148,0.104-1.736s-0.04-1.166-0.104-1.737l-4.377-1.557c-0.218-0.716-0.504-1.401-0.851-2.05l1.993-4.192c-0.725-0.91-1.549-1.734-2.458-2.459l-4.193,1.994c-0.647-0.347-1.334-0.632-2.049-0.849l-1.558-4.378C17.165,0.708,16.588,0.667,16,0.667s-1.166,0.041-1.737,0.105L12.707,5.15c-0.716,0.217-1.401,0.502-2.05,0.849L6.464,4.005C5.554,4.73,4.73,5.554,4.005,6.464l1.994,4.192c-0.347,0.648-0.632,1.334-0.849,2.05l-4.378,1.557C0.708,14.834,0.667,15.412,0.667,16s0.041,1.165,0.105,1.736l4.378,1.558c0.217,0.715,0.502,1.401,0.849,2.049l-1.994,4.193c0.725,0.909,1.549,1.733,2.459,2.458l4.192-1.993c0.648,0.347,1.334,0.633,2.05,0.851l1.557,4.377c0.571,0.064,1.148,0.104,1.737,0.104c0.588,0,1.165-0.04,1.736-0.104l1.558-4.377c0.715-0.218,1.399-0.504,2.049-0.851l4.193,1.993c0.909-0.725,1.733-1.549,2.458-2.458l-1.993-4.193c0.347-0.647,0.633-1.334,0.851-2.049L31.229,17.736zM16,20.871c-2.69,0-4.872-2.182-4.872-4.871c0-2.69,2.182-4.872,4.872-4.872c2.689,0,4.871,2.182,4.871,4.872C20.871,18.689,18.689,20.871,16,20.871z"></path><title>Link options.</title></g></g></g></g><!--z-index:26--><g   id="j_17" ><path  stroke="#aaaaaa" d="M 599 972 L 949 950" id="v-183" stroke-width="2" stroke-dasharray="30 30" fill="none" style="opacity: 1;"></path><path  fill="black" stroke="black" d="M 0 0 0 0" transform="matrix(0.9979253204907179,-0.06438209940269021,0.06438209940269021,0.9979253204907179,599,972.0968017578125)"></path><path  fill="#aaaaaa" stroke="#aaaaaa" d="M 20 0 L 0 10 L 20 20 z" id="v-185" transform="matrix(-0.997925320490718,0.06438209940268964,-0.06438209940268964,-0.997925320490718,949.6438261520591,959.4954053554115)" style="opacity: 1;"></path><path  d="M 599 972 L 949 950" id="v-184" fill="none" style="cursor: auto; pointer-events: visiblepainted;"></path><g ><g id="v-174"  label-idx="0" cursor="move" transform="matrix(1,0,0,1,774,961)" style="cursor: default; opacity: 1;"><rect joint-selector="rect" id="v-178" fill="#111111" rx="3" ry="3" pointer-events="none" width="179.0950927734375" height="90.74996566772461" transform="matrix(1,0,0,1,-89.5,-45.3)"></rect><text joint-selector="text" id="v-177" font-size="24px" xml:space="preserve" y="0.8em" fill="#aaaaaa" text-anchor="middle" pointer-events="none" font-family="Open Sans" font-weight="normal" transform="matrix(1,0,0,1,0,-39.2)"><tspan dy="0" >Registra e</tspan><tspan dy="1.2em" x="0" >consulta</tspan><tspan dy="1.2em" x="0" >lançamentos no</tspan></text></g><g id="v-175"  label-idx="1" cursor="move" transform="matrix(1,0,0,1,774,1016.2000122070312)" style="cursor: default; opacity: 1;"><rect joint-selector="rect" id="v-180" fill="#111111" rx="3" ry="3" pointer-events="none" width="62.169090270996094" height="23.399971961975098" transform="matrix(1,0,0,1,-30.9,-11.7)"></rect><text joint-selector="text" id="v-179" font-size="17px" xml:space="preserve" y="0.8em" fill="#aaaaaa" text-anchor="middle" pointer-events="none" font-family="Open Sans" font-weight="normal" transform="matrix(1,0,0,1,0,-7.8)"><tspan dy="0" >[HTTPS]</tspan></text></g><g id="v-176"  label-idx="2" cursor="move" transform="matrix(1,0,0,1,764,1024.5999755859375)" style="cursor: default; opacity: 1;"><rect joint-selector="rect" id="v-182" fill="#ffffff" rx="3" ry="3"  width="0" height="0" transform="matrix(1,0,0,1,0,0)" display="none"></rect><text joint-selector="text" id="v-181" fill="#000000" font-size="14" text-anchor="middle" pointer-events="none"></text></g></g><g  display="none" style="display: none;"></g><g  id="v-187" display="none"><g  id="v-172"><path  end="source" d="M 26 0 L 0 13 L 26 26 z"></path></g><g  id="v-173"><path  end="target" d="M 26 0 L 0 13 L 26 26 z"></path></g></g><g  id="v-186" display="none"><g  id="v-171" transform="translate(638.921212981956, 969.4906666125628) "><g  event="remove"><circle r="11"></circle><path transform="scale(.8) translate(-16, -16)" d="M24.778,21.419 19.276,15.917 24.777,10.415 21.949,7.585 16.447,13.087 10.945,7.585 8.117,10.415 13.618,15.917 8.116,21.419 10.946,24.248 16.447,18.746 21.948,24.248z"></path><title>Remove link.</title></g><g  event="link:options"><circle r="11" transform="translate(25)"></circle><path fill="white" transform="scale(.55) translate(29, -16)" d="M31.229,17.736c0.064-0.571,0.104-1.148,0.104-1.736s-0.04-1.166-0.104-1.737l-4.377-1.557c-0.218-0.716-0.504-1.401-0.851-2.05l1.993-4.192c-0.725-0.91-1.549-1.734-2.458-2.459l-4.193,1.994c-0.647-0.347-1.334-0.632-2.049-0.849l-1.558-4.378C17.165,0.708,16.588,0.667,16,0.667s-1.166,0.041-1.737,0.105L12.707,5.15c-0.716,0.217-1.401,0.502-2.05,0.849L6.464,4.005C5.554,4.73,4.73,5.554,4.005,6.464l1.994,4.192c-0.347,0.648-0.632,1.334-0.849,2.05l-4.378,1.557C0.708,14.834,0.667,15.412,0.667,16s0.041,1.165,0.105,1.736l4.378,1.558c0.217,0.715,0.502,1.401,0.849,2.049l-1.994,4.193c0.725,0.909,1.549,1.733,2.459,2.458l4.192-1.993c0.648,0.347,1.334,0.633,2.05,0.851l1.557,4.377c0.571,0.064,1.148,0.104,1.737,0.104c0.588,0,1.165-0.04,1.736-0.104l1.558-4.377c0.715-0.218,1.399-0.504,2.049-0.851l4.193,1.993c0.909-0.725,1.733-1.549,2.458-2.458l-1.993-4.193c0.347-0.647,0.633-1.334,0.851-2.049L31.229,17.736zM16,20.871c-2.69,0-4.872-2.182-4.872-4.871c0-2.69,2.182-4.872,4.872-4.872c2.689,0,4.871,2.182,4.871,4.872C20.871,18.689,18.689,20.871,16,20.871z"></path><title>Link options.</title></g></g></g></g><!--z-index:27--><g   id="j_18" ><path  stroke="#aaaaaa" d="M 1399 935 L 1699 935" id="v-203" stroke-width="2" stroke-dasharray="30 30" fill="none" style="opacity: 1;"></path><path  fill="black" stroke="black" d="M 0 0 0 0" transform="matrix(1,0,0,1,1399,935)"></path><path  fill="#aaaaaa" stroke="#aaaaaa" d="M 20 0 L 0 10 L 20 20 z" id="v-205" transform="matrix(-1,1.2246467991473532e-16,-1.2246467991473532e-16,-1,1699,945)" style="opacity: 1;"></path><path  d="M 1399 935 L 1699 935" id="v-204" fill="none" style="cursor: auto; pointer-events: visiblepainted;"></path><g ><g id="v-194"  label-idx="0" cursor="move" transform="matrix(1,0,0,1,1549,935)" style="cursor: default; opacity: 1;"><rect joint-selector="rect" id="v-198" fill="#111111" rx="3" ry="3" pointer-events="none" width="173.9673309326172" height="90.74996566772461" transform="matrix(1,0,0,1,-86.9,-45.3)"></rect><text joint-selector="text" id="v-197" font-size="24px" xml:space="preserve" y="0.8em" fill="#aaaaaa" text-anchor="middle" pointer-events="none" font-family="Open Sans" font-weight="normal" transform="matrix(1,0,0,1,0,-39.2)"><tspan dy="0" >Recupera</tspan><tspan dy="1.2em" x="0" >informações de</tspan><tspan dy="1.2em" x="0" >lançamento</tspan></text></g><g id="v-195"  label-idx="1" cursor="move" transform="matrix(1,0,0,1,1549,990.2000122070312)" style="cursor: default; opacity: 1;"><rect joint-selector="rect" id="v-200" fill="#111111" rx="3" ry="3" pointer-events="none" width="172.0290069580078" height="23.399971961975098" transform="matrix(1,0,0,1,-85.9,-11.7)"></rect><text joint-selector="text" id="v-199" font-size="17px" xml:space="preserve" y="0.8em" fill="#aaaaaa" text-anchor="middle" pointer-events="none" font-family="Open Sans" font-weight="normal" transform="matrix(1,0,0,1,0,-7.8)"><tspan dy="0" >[DynamoDB Protocol]</tspan></text></g><g id="v-196"  label-idx="2" cursor="move" transform="matrix(1,0,0,1,1539,998.5999755859375)" style="cursor: default; opacity: 1;"><rect joint-selector="rect" id="v-202" fill="#ffffff" rx="3" ry="3"  width="0" height="0" transform="matrix(1,0,0,1,0,0)" display="none"></rect><text joint-selector="text" id="v-201" fill="#000000" font-size="14" text-anchor="middle" pointer-events="none"></text></g></g><g  display="none" style="display: none;"></g><g  id="v-207" display="none"><g  id="v-192"><path  end="source" d="M 26 0 L 0 13 L 26 26 z"></path></g><g  id="v-193"><path  end="target" d="M 26 0 L 0 13 L 26 26 z"></path></g></g><g  id="v-206" display="none"><g  id="v-191" transform="translate(1439, 935) "><g  event="remove"><circle r="11"></circle><path transform="scale(.8) translate(-16, -16)" d="M24.778,21.419 19.276,15.917 24.777,10.415 21.949,7.585 16.447,13.087 10.945,7.585 8.117,10.415 13.618,15.917 8.116,21.419 10.946,24.248 16.447,18.746 21.948,24.248z"></path><title>Remove link.</title></g><g  event="link:options"><circle r="11" transform="translate(25)"></circle><path fill="white" transform="scale(.55) translate(29, -16)" d="M31.229,17.736c0.064-0.571,0.104-1.148,0.104-1.736s-0.04-1.166-0.104-1.737l-4.377-1.557c-0.218-0.716-0.504-1.401-0.851-2.05l1.993-4.192c-0.725-0.91-1.549-1.734-2.458-2.459l-4.193,1.994c-0.647-0.347-1.334-0.632-2.049-0.849l-1.558-4.378C17.165,0.708,16.588,0.667,16,0.667s-1.166,0.041-1.737,0.105L12.707,5.15c-0.716,0.217-1.401,0.502-2.05,0.849L6.464,4.005C5.554,4.73,4.73,5.554,4.005,6.464l1.994,4.192c-0.347,0.648-0.632,1.334-0.849,2.05l-4.378,1.557C0.708,14.834,0.667,15.412,0.667,16s0.041,1.165,0.105,1.736l4.378,1.558c0.217,0.715,0.502,1.401,0.849,2.049l-1.994,4.193c0.725,0.909,1.549,1.733,2.459,2.458l4.192-1.993c0.648,0.347,1.334,0.633,2.05,0.851l1.557,4.377c0.571,0.064,1.148,0.104,1.737,0.104c0.588,0,1.165-0.04,1.736-0.104l1.558-4.377c0.715-0.218,1.399-0.504,2.049-0.851l4.193,1.993c0.909-0.725,1.733-1.549,2.458-2.458l-1.993-4.193c0.347-0.647,0.633-1.334,0.851-2.049L31.229,17.736zM16,20.871c-2.69,0-4.872-2.182-4.872-4.871c0-2.69,2.182-4.872,4.872-4.872c2.689,0,4.871,2.182,4.871,4.872C20.871,18.689,18.689,20.871,16,20.871z"></path><title>Link options.</title></g></g></g></g><!--z-index:28--></g><g ></g><g ></g><g ></g></g></svg>