<svg xmlns="http://www.w3.org/2000/svg" xmlns:xlink="http://www.w3.org/1999/xlink" version="1.1" viewBox="0 0 3120 820" style="background: #111111"><defs><style>@import url(https://fonts.googleapis.com/css?family=Open+Sans:400,700);</style></defs><defs joint-selector="defs"></defs><g joint-selector="layers"  transform="matrix(1,0,0,1,0,0)"><g ></g><g ><!--z-index:1--><!--z-index:2--><!--z-index:3--><!--z-index:4--><!--z-index:5--><!--z-index:6--><!--z-index:7--><!--z-index:8--><!--z-index:9--><!--z-index:10--><!--z-index:11--><!--z-index:12--><g   id="j_7"  transform="translate(20,783.6)"><g id="v-43"><text  id="v-44" font-size="22px" xml:space="preserve" y="0.8em" font-weight="normal" text-anchor="start" fill="#777777" pointer-events="none" display="block" font-family="Open Sans"><tspan dy="0" >terça-feira, 11 de fevereiro de 2025 às 10:59 Horário Padrão de Brasília</tspan></text></g></g><!--z-index:13--><g   id="j_6"  transform="translate(20,740.4)"><g id="v-41"><text  id="v-42" font-size="36px" xml:space="preserve" y="0.8em" font-weight="normal" text-anchor="start" fill="#bbbbbb" pointer-events="none" display="block" font-family="Open Sans"><tspan dy="0" >[Container] Desafio Carrefour</tspan></text></g></g><!--z-index:14--><g   id="j_8"  transform="translate(199,185)" style=""><g  id="v-51" style="opacity: 1;"><rect  x="0" y="160" width="400" height="240" rx="70" id="v-53" stroke="#073b6f" stroke-width="2" pointer-events="visiblePainted" fill="#08427b" style="fill: rgb(8, 66, 123); stroke: rgb(7, 59, 111);"></rect><circle  cx="200" cy="88.88888888888889" r="88.88888888888889" id="v-52" stroke="#073b6f" stroke-width="2" pointer-events="visiblePainted" fill="#08427b" style="fill: rgb(8, 66, 123); stroke: rgb(7, 59, 111);"></circle><line  x1="80" y1="266.6666666666667" x2="80" y2="400" id="v-59" stroke="#073b6f" stroke-width="2" style="stroke: rgb(7, 59, 111);"></line><line  x1="320" y1="266.6666666666667" x2="320" y2="400" id="v-60" stroke="#073b6f" stroke-width="2" style="stroke: rgb(7, 59, 111);"></line><text  id="v-54" font-size="34" xml:space="preserve" y="0.8em" font-weight="bold" text-anchor="middle" pointer-events="visible" font-family="Open Sans" fill="#ffffff" transform="matrix(1,0,0,1,200,212.1)" style="fill: rgb(255, 255, 255);"><tspan dy="0" >Administrador</tspan><tspan dy="1.2em" x="0" >Financeiro</tspan></text><text  id="v-55" font-size="17" xml:space="preserve" y="0.8em" text-anchor="middle" font-family="Open Sans" fill="#ffffff" transform="matrix(1,0,0,1,200,293.7)" style="fill: rgb(255, 255, 255);"><tspan dy="0" >[Person]</tspan></text><text  id="v-56" font-size="24" xml:space="preserve" y="0.8em" text-anchor="middle" font-family="Open Sans" fill="#ffffff" transform="matrix(1,0,0,1,200,324.1)" style="fill: rgb(255, 255, 255);"><tspan dy="0" >Gerenciar o fluxo de caixa</tspan></text><g  id="v-57" font-weight="normal" text-anchor="middle" color="#ffffff" transform="matrix(1,0,0,1,197.5,368)" style="fill: rgb(255, 255, 255);" display="none"><g ></g><g ></g><g ></g><g ></g></g><image  id="v-58"></image></g></g><!--z-index:15--><g   id="j_10"  transform="translate(929,165)" style=""><g id="v-71"><rect  id="v-72" width="1990" height="411" rx="0" ry="0" fill="#111111" stroke="#0f5eaa" stroke-width="1" stroke-dasharray="20,20" pointer-events="none"></rect><text  id="v-73" font-size="24px" xml:space="preserve" y="372" font-weight="normal" fill="#0f5eaa" text-anchor="start" pointer-events="visible" font-family="Open Sans" transform="matrix(1,0,0,1,15,0)"><tspan dy="0" >Desafio Carrefour</tspan></text><text  id="v-74" font-size="17px" xml:space="preserve" y="396" font-weight="normal" fill="#0f5eaa" text-anchor="start" pointer-events="visible" font-family="Open Sans" transform="matrix(1,0,0,1,15,0)"><tspan dy="0" >[Software System]</tspan></text><image  id="v-75" pointer-events="visible"></image></g></g><!--z-index:16--><g   id="j_9"  transform="translate(2449,185)" style=""><g  id="v-64" style="opacity: 1;"><rect  id="v-65" rx="20" ry="20" stroke="#3c7fc0" stroke-width="2" pointer-events="visiblePainted" fill="#438dd5" width="450" height="300" style="fill: rgb(67, 141, 213); stroke: rgb(60, 127, 192);"></rect><text  id="v-66" font-size="34" xml:space="preserve" y="0.8em" font-weight="bold" text-anchor="middle" pointer-events="visible" font-family="Open Sans" fill="#ffffff" transform="matrix(1,0,0,1,225,88.1)" style="fill: rgb(255, 255, 255);"><tspan dy="0" >Amazon SNS</tspan></text><text  id="v-67" font-size="17" xml:space="preserve" y="0.8em" text-anchor="middle" font-family="Open Sans" fill="#ffffff" transform="matrix(1,0,0,1,225,128.9)" style="fill: rgb(255, 255, 255);"><tspan dy="0" >[Container: SNS]</tspan></text><text  id="v-68" font-size="24" xml:space="preserve" y="0.8em" text-anchor="middle" font-family="Open Sans" fill="#ffffff" transform="matrix(1,0,0,1,225,159.3)" style="fill: rgb(255, 255, 255);"><tspan dy="0" >Responsável por disponibilizar as</tspan><tspan dy="1.2em" x="0" >mensagens em tópicos</tspan></text><g  id="v-69" color="#ffffff" transform="matrix(1,0,0,1,222.5,268)" style="fill: rgb(255, 255, 255);" display="none"><g ></g><g ></g><g ></g><g ></g></g><image  id="v-70"></image></g></g><!--z-index:17--><g   id="j_11"  transform="translate(1699,185)" style=""><g  id="v-79" style="opacity: 1;"><rect  id="v-80" rx="20" ry="20" stroke="#d72b6c" stroke-width="2" pointer-events="visiblePainted" fill="#438dd5" width="450" height="300" style="fill: rgb(67, 141, 213); stroke: rgb(215, 43, 108);"></rect><text  id="v-81" font-size="34" xml:space="preserve" y="0.8em" font-weight="bold" text-anchor="middle" pointer-events="visible" font-family="Open Sans" fill="#d72b6c" transform="matrix(1,0,0,1,225,50.6)" style="fill: rgb(215, 43, 108);"><tspan dy="0" >Gateway</tspan></text><text  id="v-82" font-size="17" xml:space="preserve" y="0.8em" text-anchor="middle" font-family="Open Sans" fill="#d72b6c" transform="matrix(1,0,0,1,225,91.4)" style="fill: rgb(215, 43, 108);"><tspan dy="0" >[Container: API Gateway]</tspan></text><text  id="v-83" font-size="24" xml:space="preserve" y="0.8em" text-anchor="middle" font-family="Open Sans" fill="#d72b6c" transform="matrix(1,0,0,1,225,121.8)" style="fill: rgb(215, 43, 108);"><tspan dy="0" >Resposanvel pela comunicação com</tspan><tspan dy="1.2em" x="0" >os Lambdas</tspan></text><g  id="v-84" color="#d72b6c" transform="matrix(1,0,0,1,210,268)" style="fill: rgb(215, 43, 108);" display="none"><g  transform="translate(5 0)"><svg xmlns="http://www.w3.org/2000/svg" width="20" height="20" fill="currentColor" viewBox="0 0 16 16"><path fill-rule="evenodd" d="M6.5 12a5.5 5.5 0 1 0 0-11 5.5 5.5 0 0 0 0 11zM13 6.5a6.5 6.5 0 1 1-13 0 6.5 6.5 0 0 1 13 0z"></path><path d="M10.344 11.742c.03.04.062.078.098.115l3.85 3.85a1 1 0 0 0 1.415-1.414l-3.85-3.85a1.007 1.007 0 0 0-.115-.1 6.538 6.538 0 0 1-1.398 1.4z"></path><path fill-rule="evenodd" d="M6.5 3a.5.5 0 0 1 .5.5V6h2.5a.5.5 0 0 1 0 1H7v2.5a.5.5 0 0 1-1 0V7H3.5a.5.5 0 0 1 0-1H6V3.5a.5.5 0 0 1 .5-.5z"></path></svg></g><g ></g><g ></g><g ></g></g><image  id="v-85" xlink:href="https://static.structurizr.com/themes/amazon-web-services-2023.01.31/Arch_Amazon-API-Gateway_48.png" width="60" height="60" opacity="1" transform="matrix(1,0,0,1,195,189.4)"></image></g></g><!--z-index:18--><g   id="j_12"  transform="translate(949,185)" style=""><g  id="v-89" style="opacity: 1;"><rect  id="v-90" rx="10" ry="10" stroke="#de2d34" stroke-width="2" pointer-events="visiblePainted" fill="#de2d34" width="450" height="300" style="fill: rgb(222, 45, 52); stroke: rgb(222, 45, 52);"></rect><rect  id="v-91" rx="10" ry="10" stroke="#de2d34" stroke-width="0" pointer-events="visiblePainted" fill="#88bbf7" width="430" height="250" x="10" y="40" style="fill: rgb(136, 187, 247);"></rect><ellipse  id="v-98" fill="#88bbf7" cx="20" cy="20" rx="10" ry="10" style="fill: rgb(136, 187, 247);"></ellipse><ellipse  id="v-99" fill="#88bbf7" cx="50" cy="20" rx="10" ry="10" style="fill: rgb(136, 187, 247);"></ellipse><ellipse  id="v-100" fill="#88bbf7" cx="80" cy="20" rx="10" ry="10" style="fill: rgb(136, 187, 247);"></ellipse><rect  id="v-92" rx="10" ry="10" stroke="#444444" stroke-width="0" pointer-events="visiblePainted" fill="#88bbf7" width="340" height="20" x="100" y="10" style="fill: rgb(136, 187, 247);"></rect><text  id="v-93" font-size="34" xml:space="preserve" y="0.8em" font-weight="bold" text-anchor="middle" pointer-events="visible" font-family="Open Sans" fill="#de2d34" transform="matrix(1,0,0,1,225,65.6)" style="fill: rgb(222, 45, 52);"><tspan dy="0" >Fluxo de Caixa</tspan></text><text  id="v-94" font-size="17" xml:space="preserve" y="0.8em" text-anchor="middle" font-family="Open Sans" fill="#de2d34" transform="matrix(1,0,0,1,225,106.4)" style="fill: rgb(222, 45, 52);"><tspan dy="0" >[Container: React/Vite]</tspan></text><text  id="v-95" font-size="24" xml:space="preserve" y="0.8em" text-anchor="middle" font-family="Open Sans" fill="#de2d34" transform="matrix(1,0,0,1,225,136.8)" style="fill: rgb(222, 45, 52);"><tspan dy="0" >Registra e exibe os lançamentos</tspan><tspan dy="1.2em" x="0" >financeiros</tspan></text><g  id="v-96" font-weight="normal" text-anchor="middle" color="#de2d34" transform="matrix(1,0,0,1,222.5,258)" style="fill: rgb(222, 45, 52);" display="none"><g ></g><g ></g><g ></g><g ></g></g><image  id="v-97" xlink:href="https://static.structurizr.com/themes/amazon-web-services-2023.01.31/Arch_AWS-Amplify_48.png" width="60" height="60" opacity="1" transform="matrix(1,0,0,1,195,204.4)"></image></g></g><!--z-index:19--><g   id="j_13" ><path  stroke="#aaaaaa" d="M 599 372 L 949 350" id="v-116" stroke-width="2" stroke-dasharray="30 30" fill="none" style="opacity: 1;"></path><path  fill="black" stroke="black" d="M 0 0 0 0" transform="matrix(0.9979253204907179,-0.06438209940269021,0.06438209940269021,0.9979253204907179,599,372.0967712402344)"></path><path  fill="#aaaaaa" stroke="#aaaaaa" d="M 20 0 L 0 10 L 20 20 z" id="v-118" transform="matrix(-0.9979253033446924,0.06438236516627595,-0.06438236516627595,-0.9979253033446924,949.6438286382347,359.49537200873726)" style="opacity: 1;"></path><path  d="M 599 372 L 949 350" id="v-117" fill="none" style="cursor: auto; pointer-events: visiblepainted;"></path><g ><g id="v-107"  label-idx="0" cursor="move" transform="matrix(1,0,0,1,774,361)" style="cursor: default; opacity: 1;"><rect joint-selector="rect" id="v-111" fill="#111111" rx="3" ry="3" pointer-events="none" width="179.0950927734375" height="90.74996566772461" transform="matrix(1,0,0,1,-89.5,-45.3)"></rect><text joint-selector="text" id="v-110" font-size="24px" xml:space="preserve" y="0.8em" fill="#aaaaaa" text-anchor="middle" pointer-events="none" font-family="Open Sans" font-weight="normal" transform="matrix(1,0,0,1,0,-39.2)"><tspan dy="0" >Registra e</tspan><tspan dy="1.2em" x="0" >consulta</tspan><tspan dy="1.2em" x="0" >lançamentos no</tspan></text></g><g id="v-108"  label-idx="1" cursor="move" transform="matrix(1,0,0,1,774,416.20001220703125)" style="cursor: default; opacity: 1;"><rect joint-selector="rect" id="v-113" fill="#111111" rx="3" ry="3" pointer-events="none" width="62.169090270996094" height="23.399971961975098" transform="matrix(1,0,0,1,-30.9,-11.7)"></rect><text joint-selector="text" id="v-112" font-size="17px" xml:space="preserve" y="0.8em" fill="#aaaaaa" text-anchor="middle" pointer-events="none" font-family="Open Sans" font-weight="normal" transform="matrix(1,0,0,1,0,-7.8)"><tspan dy="0" >[HTTPS]</tspan></text></g><g id="v-109"  label-idx="2" cursor="move" transform="matrix(1,0,0,1,764,424.6000061035156)" style="cursor: default; opacity: 1;"><rect joint-selector="rect" id="v-115" fill="#ffffff" rx="3" ry="3"  width="0" height="0" transform="matrix(1,0,0,1,0,0)" display="none"></rect><text joint-selector="text" id="v-114" fill="#000000" font-size="14" text-anchor="middle" pointer-events="none"></text></g></g><g  display="none" style="display: none;"></g><g  id="v-120" display="none"><g  id="v-105"><path  end="source" d="M 26 0 L 0 13 L 26 26 z"></path></g><g  id="v-106"><path  end="target" d="M 26 0 L 0 13 L 26 26 z"></path></g></g><g  id="v-119" display="none"><g  id="v-104" transform="translate(638.921212981956, 369.49066661256273) "><g  event="remove"><circle r="11"></circle><path transform="scale(.8) translate(-16, -16)" d="M24.778,21.419 19.276,15.917 24.777,10.415 21.949,7.585 16.447,13.087 10.945,7.585 8.117,10.415 13.618,15.917 8.116,21.419 10.946,24.248 16.447,18.746 21.948,24.248z"></path><title>Remove link.</title></g><g  event="link:options"><circle r="11" transform="translate(25)"></circle><path fill="white" transform="scale(.55) translate(29, -16)" d="M31.229,17.736c0.064-0.571,0.104-1.148,0.104-1.736s-0.04-1.166-0.104-1.737l-4.377-1.557c-0.218-0.716-0.504-1.401-0.851-2.05l1.993-4.192c-0.725-0.91-1.549-1.734-2.458-2.459l-4.193,1.994c-0.647-0.347-1.334-0.632-2.049-0.849l-1.558-4.378C17.165,0.708,16.588,0.667,16,0.667s-1.166,0.041-1.737,0.105L12.707,5.15c-0.716,0.217-1.401,0.502-2.05,0.849L6.464,4.005C5.554,4.73,4.73,5.554,4.005,6.464l1.994,4.192c-0.347,0.648-0.632,1.334-0.849,2.05l-4.378,1.557C0.708,14.834,0.667,15.412,0.667,16s0.041,1.165,0.105,1.736l4.378,1.558c0.217,0.715,0.502,1.401,0.849,2.049l-1.994,4.193c0.725,0.909,1.549,1.733,2.459,2.458l4.192-1.993c0.648,0.347,1.334,0.633,2.05,0.851l1.557,4.377c0.571,0.064,1.148,0.104,1.737,0.104c0.588,0,1.165-0.04,1.736-0.104l1.558-4.377c0.715-0.218,1.399-0.504,2.049-0.851l4.193,1.993c0.909-0.725,1.733-1.549,2.458-2.458l-1.993-4.193c0.347-0.647,0.633-1.334,0.851-2.049L31.229,17.736zM16,20.871c-2.69,0-4.872-2.182-4.872-4.871c0-2.69,2.182-4.872,4.872-4.872c2.689,0,4.871,2.182,4.871,4.872C20.871,18.689,18.689,20.871,16,20.871z"></path><title>Link options.</title></g></g></g></g><!--z-index:20--><g   id="j_14" ><path  stroke="#aaaaaa" d="M 1399 335 L 1699 335" id="v-136" stroke-width="2" stroke-dasharray="30 30" fill="none" style="opacity: 1;"></path><path  fill="black" stroke="black" d="M 0 0 0 0" transform="matrix(1,0,0,1,1399,335)"></path><path  fill="#aaaaaa" stroke="#aaaaaa" d="M 20 0 L 0 10 L 20 20 z" id="v-138" transform="matrix(-1,1.2246467991473532e-16,-1.2246467991473532e-16,-1,1699,345)" style="opacity: 1;"></path><path  d="M 1399 335 L 1699 335" id="v-137" fill="none" style="cursor: auto; pointer-events: visiblepainted;"></path><g ><g id="v-127"  label-idx="0" cursor="move" transform="matrix(1,0,0,1,1549,335)" style="cursor: default; opacity: 1;"><rect joint-selector="rect" id="v-131" fill="#111111" rx="3" ry="3" pointer-events="none" width="166.7248077392578" height="61.94996452331543" transform="matrix(1,0,0,1,-83.4,-30.9)"></rect><text joint-selector="text" id="v-130" font-size="24px" xml:space="preserve" y="0.8em" fill="#aaaaaa" text-anchor="middle" pointer-events="none" font-family="Open Sans" font-weight="normal" transform="matrix(1,0,0,1,0,-24.8)"><tspan dy="0" >Recebe e Envia</tspan><tspan dy="1.2em" x="0" >requests ao</tspan></text></g><g id="v-128"  label-idx="1" cursor="move" transform="matrix(1,0,0,1,1549,375.79998779296875)" style="cursor: default; opacity: 1;"><rect joint-selector="rect" id="v-133" fill="#111111" rx="3" ry="3" pointer-events="none" width="62.169090270996094" height="23.399971961975098" transform="matrix(1,0,0,1,-30.9,-11.7)"></rect><text joint-selector="text" id="v-132" font-size="17px" xml:space="preserve" y="0.8em" fill="#aaaaaa" text-anchor="middle" pointer-events="none" font-family="Open Sans" font-weight="normal" transform="matrix(1,0,0,1,0,-7.8)"><tspan dy="0" >[HTTPS]</tspan></text></g><g id="v-129"  label-idx="2" cursor="move" transform="matrix(1,0,0,1,1539,384.20001220703125)" style="cursor: default; opacity: 1;"><rect joint-selector="rect" id="v-135" fill="#ffffff" rx="3" ry="3"  width="0" height="0" transform="matrix(1,0,0,1,0,0)" display="none"></rect><text joint-selector="text" id="v-134" fill="#000000" font-size="14" text-anchor="middle" pointer-events="none"></text></g></g><g  display="none" style="display: none;"></g><g  id="v-140" display="none"><g  id="v-125"><path  end="source" d="M 26 0 L 0 13 L 26 26 z"></path></g><g  id="v-126"><path  end="target" d="M 26 0 L 0 13 L 26 26 z"></path></g></g><g  id="v-139" display="none"><g  id="v-124" transform="translate(1439, 335.00000000000006) "><g  event="remove"><circle r="11"></circle><path transform="scale(.8) translate(-16, -16)" d="M24.778,21.419 19.276,15.917 24.777,10.415 21.949,7.585 16.447,13.087 10.945,7.585 8.117,10.415 13.618,15.917 8.116,21.419 10.946,24.248 16.447,18.746 21.948,24.248z"></path><title>Remove link.</title></g><g  event="link:options"><circle r="11" transform="translate(25)"></circle><path fill="white" transform="scale(.55) translate(29, -16)" d="M31.229,17.736c0.064-0.571,0.104-1.148,0.104-1.736s-0.04-1.166-0.104-1.737l-4.377-1.557c-0.218-0.716-0.504-1.401-0.851-2.05l1.993-4.192c-0.725-0.91-1.549-1.734-2.458-2.459l-4.193,1.994c-0.647-0.347-1.334-0.632-2.049-0.849l-1.558-4.378C17.165,0.708,16.588,0.667,16,0.667s-1.166,0.041-1.737,0.105L12.707,5.15c-0.716,0.217-1.401,0.502-2.05,0.849L6.464,4.005C5.554,4.73,4.73,5.554,4.005,6.464l1.994,4.192c-0.347,0.648-0.632,1.334-0.849,2.05l-4.378,1.557C0.708,14.834,0.667,15.412,0.667,16s0.041,1.165,0.105,1.736l4.378,1.558c0.217,0.715,0.502,1.401,0.849,2.049l-1.994,4.193c0.725,0.909,1.549,1.733,2.459,2.458l4.192-1.993c0.648,0.347,1.334,0.633,2.05,0.851l1.557,4.377c0.571,0.064,1.148,0.104,1.737,0.104c0.588,0,1.165-0.04,1.736-0.104l1.558-4.377c0.715-0.218,1.399-0.504,2.049-0.851l4.193,1.993c0.909-0.725,1.733-1.549,2.458-2.458l-1.993-4.193c0.347-0.647,0.633-1.334,0.851-2.049L31.229,17.736zM16,20.871c-2.69,0-4.872-2.182-4.872-4.871c0-2.69,2.182-4.872,4.872-4.872c2.689,0,4.871,2.182,4.871,4.872C20.871,18.689,18.689,20.871,16,20.871z"></path><title>Link options.</title></g></g></g></g><!--z-index:21--><g   id="j_15" ><path  stroke="#aaaaaa" d="M 2149 335 L 2449 335" id="v-153" stroke-width="2" stroke-dasharray="30 30" fill="none" style="opacity: 1;"></path><path  fill="black" stroke="black" d="M 0 0 0 0" transform="matrix(1,0,0,1,2149,335)"></path><path  fill="#aaaaaa" stroke="#aaaaaa" d="M 20 0 L 0 10 L 20 20 z" id="v-155" transform="matrix(-1,1.2246467991473532e-16,-1.2246467991473532e-16,-1,2449,345)" style="opacity: 1;"></path><path  d="M 2149 335 L 2449 335" id="v-154" fill="none" style="cursor: auto; pointer-events: visiblepainted;"></path><g ><g id="v-144"  label-idx="0" cursor="move" transform="matrix(1,0,0,1,2299,335)" style="cursor: default; opacity: 1;"><rect joint-selector="rect" id="v-148" fill="#111111" rx="3" ry="3" pointer-events="none" width="140.3322296142578" height="33.149959564208984" transform="matrix(1,0,0,1,-70.1,-16.5)"></rect><text joint-selector="text" id="v-147" font-size="24px" xml:space="preserve" y="0.8em" fill="#aaaaaa" text-anchor="middle" pointer-events="none" font-family="Open Sans" font-weight="normal" transform="matrix(1,0,0,1,0,-10.4)"><tspan dy="0" >Consome de</tspan></text></g><g id="v-145"  label-idx="1" cursor="move" transform="matrix(1,0,0,1,2299,361.3999938964844)" style="cursor: default; opacity: 1;"><rect joint-selector="rect" id="v-150" fill="#111111" rx="3" ry="3" pointer-events="none" width="107.93092346191406" height="23.399971961975098" transform="matrix(1,0,0,1,-53.8,-11.7)"></rect><text joint-selector="text" id="v-149" font-size="17px" xml:space="preserve" y="0.8em" fill="#aaaaaa" text-anchor="middle" pointer-events="none" font-family="Open Sans" font-weight="normal" transform="matrix(1,0,0,1,0,-7.8)"><tspan dy="0" >[SNS Topicos]</tspan></text></g><g id="v-146"  label-idx="2" cursor="move" transform="matrix(1,0,0,1,2289,369.79998779296875)" style="cursor: default; opacity: 1;"><rect joint-selector="rect" id="v-152" fill="#ffffff" rx="3" ry="3"  width="0" height="0" transform="matrix(1,0,0,1,0,0)" display="none"></rect><text joint-selector="text" id="v-151" fill="#000000" font-size="14" text-anchor="middle" pointer-events="none"></text></g></g><g  display="none" style="display: none;"></g><g  id="v-157" display="none"><g  id="v-142"><path  end="source" d="M 26 0 L 0 13 L 26 26 z"></path></g><g  id="v-143"><path  end="target" d="M 26 0 L 0 13 L 26 26 z"></path></g></g><g  id="v-156" display="none"><g  id="v-141" transform="translate(2189, 335.00000000000006) "><g  event="remove"><circle r="11"></circle><path transform="scale(.8) translate(-16, -16)" d="M24.778,21.419 19.276,15.917 24.777,10.415 21.949,7.585 16.447,13.087 10.945,7.585 8.117,10.415 13.618,15.917 8.116,21.419 10.946,24.248 16.447,18.746 21.948,24.248z"></path><title>Remove link.</title></g><g  event="link:options"><circle r="11" transform="translate(25)"></circle><path fill="white" transform="scale(.55) translate(29, -16)" d="M31.229,17.736c0.064-0.571,0.104-1.148,0.104-1.736s-0.04-1.166-0.104-1.737l-4.377-1.557c-0.218-0.716-0.504-1.401-0.851-2.05l1.993-4.192c-0.725-0.91-1.549-1.734-2.458-2.459l-4.193,1.994c-0.647-0.347-1.334-0.632-2.049-0.849l-1.558-4.378C17.165,0.708,16.588,0.667,16,0.667s-1.166,0.041-1.737,0.105L12.707,5.15c-0.716,0.217-1.401,0.502-2.05,0.849L6.464,4.005C5.554,4.73,4.73,5.554,4.005,6.464l1.994,4.192c-0.347,0.648-0.632,1.334-0.849,2.05l-4.378,1.557C0.708,14.834,0.667,15.412,0.667,16s0.041,1.165,0.105,1.736l4.378,1.558c0.217,0.715,0.502,1.401,0.849,2.049l-1.994,4.193c0.725,0.909,1.549,1.733,2.459,2.458l4.192-1.993c0.648,0.347,1.334,0.633,2.05,0.851l1.557,4.377c0.571,0.064,1.148,0.104,1.737,0.104c0.588,0,1.165-0.04,1.736-0.104l1.558-4.377c0.715-0.218,1.399-0.504,2.049-0.851l4.193,1.993c0.909-0.725,1.733-1.549,2.458-2.458l-1.993-4.193c0.347-0.647,0.633-1.334,0.851-2.049L31.229,17.736zM16,20.871c-2.69,0-4.872-2.182-4.872-4.871c0-2.69,2.182-4.872,4.872-4.872c2.689,0,4.871,2.182,4.871,4.872C20.871,18.689,18.689,20.871,16,20.871z"></path><title>Link options.</title></g></g></g></g><!--z-index:22--></g><g ></g><g ></g><g ></g></g></svg>